<svg width="375" height="812" viewBox="0 0 375 812" fill="none" xmlns="http://www.w3.org/2000/svg">
<g clip-path="url(#clip0)">
<rect width="375" height="812" fill="#181818"/>
<path d="M142.084 56.312C142.084 58.056 141.372 59.248 139.948 59.888C141.26 60.32 142.156 61.112 142.636 62.264C142.812 62.712 142.9 63.232 142.9 63.824C142.9 65.744 141.884 67.024 139.852 67.664C139.18 67.888 138.388 68 137.476 68H129.94V52.112H137.068C138.78 52.112 140.084 52.576 140.98 53.504C141.716 54.24 142.084 55.176 142.084 56.312ZM131.74 59.216H137.068C138.54 59.216 139.524 58.712 140.02 57.704C140.196 57.352 140.284 56.976 140.284 56.576C140.284 56.16 140.228 55.8 140.116 55.496C140.004 55.176 139.828 54.896 139.588 54.656C139.06 54.096 138.284 53.816 137.26 53.816H131.74V59.216ZM137.668 66.296C138.772 66.296 139.62 66.072 140.212 65.624C140.804 65.16 141.1 64.512 141.1 63.68C141.1 62.88 140.812 62.224 140.236 61.712C139.596 61.136 138.676 60.848 137.476 60.848H131.74V66.296H137.668ZM145.447 56H147.247V68H145.447V56ZM147.319 51.632V53.984H145.375V51.632H147.319ZM155.913 66.56C156.681 66.56 157.361 66.344 157.953 65.912C158.545 65.48 158.977 64.92 159.249 64.232H161.193C160.825 65.416 160.153 66.368 159.177 67.088C158.153 67.824 156.937 68.192 155.529 68.192C153.769 68.192 152.337 67.592 151.233 66.392C150.161 65.224 149.625 63.76 149.625 62C149.625 60.24 150.161 58.776 151.233 57.608C152.337 56.408 153.769 55.808 155.529 55.808C156.937 55.808 158.153 56.176 159.177 56.912C160.153 57.632 160.825 58.584 161.193 59.768H159.249C158.977 59.08 158.545 58.52 157.953 58.088C157.361 57.656 156.681 57.44 155.913 57.44C155.145 57.44 154.489 57.56 153.945 57.8C153.417 58.04 152.969 58.368 152.601 58.784C151.817 59.648 151.425 60.72 151.425 62C151.425 63.28 151.817 64.352 152.601 65.216C153.401 66.112 154.505 66.56 155.913 66.56ZM168.775 66.56C170.391 66.56 171.551 65.888 172.255 64.544H174.223C173.807 65.632 173.143 66.512 172.231 67.184C171.335 67.856 170.175 68.192 168.751 68.192C166.943 68.192 165.471 67.592 164.335 66.392C163.231 65.224 162.679 63.76 162.679 62C162.679 60.224 163.207 58.76 164.263 57.608C165.383 56.408 166.839 55.808 168.631 55.808C170.423 55.808 171.879 56.408 172.999 57.608C174.055 58.76 174.583 60.224 174.583 62V62.72H164.527C164.655 63.824 165.095 64.736 165.847 65.456C166.615 66.192 167.591 66.56 168.775 66.56ZM168.631 57.44C167.527 57.44 166.599 57.784 165.847 58.472C165.143 59.128 164.711 59.984 164.551 61.04H172.711C172.551 59.984 172.119 59.128 171.415 58.472C170.663 57.784 169.735 57.44 168.631 57.44ZM178.583 57.92C179.543 56.512 180.975 55.808 182.879 55.808C184.607 55.808 186.007 56.408 187.079 57.608C188.151 58.792 188.687 60.256 188.687 62C188.687 63.744 188.151 65.208 187.079 66.392C186.007 67.592 184.567 68.192 182.759 68.192C180.951 68.192 179.559 67.48 178.583 66.056V72.752H176.783V56H178.583V57.92ZM182.639 57.44C181.343 57.44 180.319 57.888 179.567 58.784C178.847 59.632 178.487 60.704 178.487 62C178.487 63.296 178.847 64.368 179.567 65.216C180.319 66.112 181.343 66.56 182.639 66.56C183.919 66.56 184.959 66.112 185.759 65.216C186.511 64.368 186.887 63.296 186.887 62C186.887 60.704 186.511 59.632 185.759 58.784C184.959 57.888 183.919 57.44 182.639 57.44ZM201.686 66.56C202.454 66.56 203.134 66.344 203.726 65.912C204.318 65.48 204.75 64.92 205.022 64.232H206.966C206.598 65.416 205.926 66.368 204.95 67.088C203.926 67.824 202.71 68.192 201.302 68.192C199.542 68.192 198.11 67.592 197.006 66.392C195.934 65.224 195.398 63.76 195.398 62C195.398 60.24 195.934 58.776 197.006 57.608C198.11 56.408 199.542 55.808 201.302 55.808C202.71 55.808 203.926 56.176 204.95 56.912C205.926 57.632 206.598 58.584 206.966 59.768H205.022C204.75 59.08 204.318 58.52 203.726 58.088C203.134 57.656 202.454 57.44 201.686 57.44C200.918 57.44 200.262 57.56 199.718 57.8C199.19 58.04 198.742 58.368 198.374 58.784C197.59 59.648 197.198 60.72 197.198 62C197.198 63.28 197.59 64.352 198.374 65.216C199.174 66.112 200.278 66.56 201.686 66.56ZM217.861 68V66.128C217.429 66.704 216.901 67.192 216.277 67.592C215.653 67.992 214.941 68.192 214.141 68.192C213.341 68.192 212.653 68.08 212.077 67.856C211.501 67.632 210.997 67.296 210.565 66.848C209.573 65.872 209.077 64.584 209.077 62.984V56H210.877V62.936C210.877 64.04 211.189 64.92 211.813 65.576C212.437 66.232 213.245 66.56 214.237 66.56C215.245 66.56 216.101 66.224 216.805 65.552C217.509 64.864 217.861 63.984 217.861 62.912V56H219.661V68H217.861ZM229.126 55.808V57.608H228.91C227.614 57.608 226.558 58.128 225.742 59.168C224.974 60.16 224.59 61.344 224.59 62.72V68H222.79V56H224.59V58.952C224.974 57.704 225.806 56.784 227.086 56.192C227.614 55.936 228.254 55.808 229.006 55.808H229.126ZM232.864 68H231.064V51.2H232.864V68ZM243.042 59.216C242.882 57.968 241.874 57.344 240.018 57.344C238.178 57.344 237.258 57.92 237.258 59.072C237.258 59.552 237.45 59.92 237.834 60.176C238.234 60.416 238.73 60.616 239.322 60.776C239.914 60.936 240.554 61.088 241.242 61.232C241.946 61.36 242.594 61.552 243.186 61.808C243.778 62.048 244.266 62.384 244.65 62.816C245.05 63.248 245.25 63.84 245.25 64.592C245.25 65.76 244.81 66.656 243.93 67.28C243.05 67.888 241.858 68.192 240.354 68.192C238.754 68.192 237.482 67.792 236.538 66.992C235.674 66.288 235.21 65.368 235.146 64.232H237.018C237.13 65.336 237.754 66.08 238.89 66.464C239.306 66.592 239.714 66.656 240.114 66.656C240.53 66.656 240.914 66.632 241.266 66.584C241.618 66.536 241.962 66.448 242.298 66.32C243.066 66.016 243.45 65.496 243.45 64.76C243.45 64.264 243.25 63.888 242.85 63.632C242.466 63.36 241.978 63.144 241.386 62.984C240.794 62.808 240.146 62.656 239.442 62.528C238.754 62.384 238.114 62.192 237.522 61.952C236.93 61.712 236.434 61.384 236.034 60.968C235.65 60.552 235.458 59.976 235.458 59.24C235.458 58.152 235.85 57.312 236.634 56.72C237.434 56.112 238.61 55.808 240.162 55.808C241.634 55.808 242.794 56.16 243.642 56.864C244.346 57.456 244.754 58.24 244.866 59.216H243.042Z" fill="white"/>
<path d="M175.991 147.224V151.304L162.743 179H158.567L172.295 150.68H153.959V147.224H175.991ZM194.174 146.36L183.182 180.536H179.822L190.814 146.36H194.174ZM214.386 161.528C216.274 162.264 217.762 163.384 218.85 164.888C219.938 166.392 220.482 167.96 220.482 169.592C220.482 171.192 220.226 172.584 219.714 173.768C219.202 174.92 218.466 175.912 217.506 176.744C215.49 178.504 212.69 179.384 209.106 179.384C205.522 179.384 202.722 178.504 200.706 176.744C198.722 175.016 197.73 172.728 197.73 169.88C197.73 168.056 198.274 166.392 199.362 164.888C200.45 163.384 201.938 162.264 203.826 161.528C202.61 161.08 201.538 160.344 200.61 159.32C199.522 158.072 198.978 156.584 198.978 154.856C198.978 152.456 199.842 150.52 201.57 149.048C203.298 147.576 205.81 146.84 209.106 146.84C212.402 146.84 214.914 147.576 216.642 149.048C218.37 150.52 219.234 152.456 219.234 154.856C219.234 157.384 218.162 159.32 216.018 160.664C215.442 161.048 214.898 161.336 214.386 161.528ZM209.106 159.992C210.802 159.992 212.258 159.608 213.474 158.84C214.914 157.912 215.634 156.664 215.634 155.096C215.634 153.528 215.026 152.344 213.81 151.544C212.594 150.712 211.026 150.296 209.106 150.296C207.186 150.296 205.618 150.712 204.402 151.544C203.186 152.344 202.578 153.528 202.578 155.096C202.578 156.664 203.234 157.88 204.546 158.744C205.89 159.576 207.41 159.992 209.106 159.992ZM209.106 175.928C211.506 175.928 213.394 175.384 214.77 174.296C216.178 173.208 216.882 171.72 216.882 169.832C216.882 167.848 216.114 166.232 214.578 164.984C213.138 163.864 211.314 163.304 209.106 163.304C206.898 163.304 205.074 163.864 203.634 164.984C202.098 166.232 201.33 167.832 201.33 169.784C201.33 171.704 202.018 173.208 203.394 174.296C204.802 175.384 206.706 175.928 209.106 175.928Z" fill="white"/>
<path d="M282.055 297.92C281.827 298.112 281.671 298.328 281.587 298.568C281.515 298.808 281.479 299.066 281.479 299.342C281.479 299.606 281.593 299.852 281.821 300.08C282.061 300.308 282.373 300.5 282.757 300.656C283.141 300.812 283.579 300.95 284.071 301.07C284.563 301.19 285.061 301.316 285.565 301.448C286.081 301.568 286.585 301.712 287.077 301.88C287.569 302.036 288.007 302.24 288.391 302.492C289.243 303.032 289.669 303.77 289.669 304.706C289.669 305.822 289.249 306.674 288.409 307.262C287.581 307.85 286.429 308.144 284.953 308.144C283.285 308.144 282.013 307.796 281.137 307.1C280.357 306.476 279.913 305.588 279.805 304.436H281.209C281.257 305.252 281.653 305.876 282.397 306.308C283.045 306.68 283.903 306.866 284.971 306.866C287.203 306.866 288.319 306.164 288.319 304.76C288.319 304.28 288.115 303.902 287.707 303.626C287.311 303.35 286.807 303.122 286.195 302.942C285.595 302.762 284.941 302.594 284.233 302.438C283.537 302.282 282.883 302.084 282.271 301.844C281.671 301.592 281.167 301.268 280.759 300.872C280.363 300.464 280.165 299.918 280.165 299.234C280.165 298.262 280.537 297.47 281.281 296.858C282.025 296.246 283.147 295.94 284.647 295.94C286.159 295.94 287.329 296.288 288.157 296.984C288.913 297.596 289.315 298.382 289.363 299.342H287.977C287.857 298.358 287.221 297.704 286.069 297.38C285.661 297.26 285.151 297.2 284.539 297.2C283.939 297.2 283.429 297.272 283.009 297.416C282.601 297.548 282.283 297.716 282.055 297.92ZM295.487 306.92C296.699 306.92 297.569 306.416 298.097 305.408H299.573C299.261 306.224 298.763 306.884 298.079 307.388C297.407 307.892 296.537 308.144 295.469 308.144C294.113 308.144 293.009 307.694 292.157 306.794C291.329 305.918 290.915 304.82 290.915 303.5C290.915 302.168 291.311 301.07 292.103 300.206C292.943 299.306 294.035 298.856 295.379 298.856C296.723 298.856 297.815 299.306 298.655 300.206C299.447 301.07 299.843 302.168 299.843 303.5V304.04H292.301C292.397 304.868 292.727 305.552 293.291 306.092C293.867 306.644 294.599 306.92 295.487 306.92ZM295.379 300.08C294.551 300.08 293.855 300.338 293.291 300.854C292.763 301.346 292.439 301.988 292.319 302.78H298.439C298.319 301.988 297.995 301.346 297.467 300.854C296.903 300.338 296.207 300.08 295.379 300.08ZM302.359 308V300.188H300.523V299H302.359V295.778H303.709V299H305.779V300.188H303.709V308H302.359ZM312.55 301.412C312.43 300.476 311.674 300.008 310.282 300.008C308.902 300.008 308.212 300.44 308.212 301.304C308.212 301.664 308.356 301.94 308.644 302.132C308.944 302.312 309.316 302.462 309.76 302.582C310.204 302.702 310.684 302.816 311.2 302.924C311.728 303.02 312.214 303.164 312.658 303.356C313.102 303.536 313.468 303.788 313.756 304.112C314.056 304.436 314.206 304.88 314.206 305.444C314.206 306.32 313.876 306.992 313.216 307.46C312.556 307.916 311.662 308.144 310.534 308.144C309.334 308.144 308.38 307.844 307.672 307.244C307.024 306.716 306.676 306.026 306.628 305.174H308.032C308.116 306.002 308.584 306.56 309.436 306.848C309.748 306.944 310.054 306.992 310.354 306.992C310.666 306.992 310.954 306.974 311.218 306.938C311.482 306.902 311.74 306.836 311.992 306.74C312.568 306.512 312.856 306.122 312.856 305.57C312.856 305.198 312.706 304.916 312.406 304.724C312.118 304.52 311.752 304.358 311.308 304.238C310.864 304.106 310.378 303.992 309.85 303.896C309.334 303.788 308.854 303.644 308.41 303.464C307.966 303.284 307.594 303.038 307.294 302.726C307.006 302.414 306.862 301.982 306.862 301.43C306.862 300.614 307.156 299.984 307.744 299.54C308.344 299.084 309.226 298.856 310.39 298.856C311.494 298.856 312.364 299.12 313 299.648C313.528 300.092 313.834 300.68 313.918 301.412H312.55Z" fill="#9D9D9D"/>
<path d="M49.976 306.83C50.828 306.83 51.572 306.614 52.208 306.182C52.856 305.75 53.336 305.168 53.648 304.436H55.07C54.674 305.564 54.02 306.452 53.108 307.1C52.136 307.796 50.99 308.144 49.67 308.144C47.93 308.144 46.52 307.55 45.44 306.362C44.42 305.222 43.91 303.782 43.91 302.042C43.91 300.302 44.42 298.862 45.44 297.722C46.52 296.534 47.93 295.94 49.67 295.94C50.99 295.94 52.136 296.288 53.108 296.984C54.02 297.632 54.674 298.52 55.07 299.648H53.648C53.336 298.916 52.856 298.334 52.208 297.902C51.572 297.47 50.828 297.254 49.976 297.254C49.124 297.254 48.416 297.38 47.852 297.632C47.288 297.872 46.814 298.208 46.43 298.64C45.65 299.516 45.26 300.65 45.26 302.042C45.26 303.434 45.65 304.568 46.43 305.444C47.246 306.368 48.428 306.83 49.976 306.83ZM63.8257 306.56C63.1057 307.616 62.0317 308.144 60.6037 308.144C59.3077 308.144 58.2517 307.694 57.4357 306.794C56.6437 305.906 56.2477 304.808 56.2477 303.5C56.2477 302.192 56.6437 301.094 57.4357 300.206C58.2517 299.306 59.3377 298.856 60.6937 298.856C62.0497 298.856 63.0937 299.39 63.8257 300.458V299H65.1757V308H63.8257V306.56ZM60.7837 306.92C61.7557 306.92 62.5237 306.584 63.0877 305.912C63.6277 305.276 63.8977 304.472 63.8977 303.5C63.8977 302.528 63.6277 301.724 63.0877 301.088C62.5237 300.416 61.7557 300.08 60.7837 300.08C59.8237 300.08 59.0437 300.416 58.4437 301.088C57.8797 301.724 57.5977 302.528 57.5977 303.5C57.5977 304.472 57.8797 305.276 58.4437 305.912C59.0437 306.584 59.8237 306.92 60.7837 306.92ZM68.8608 308H67.5108V295.4H68.8608V308ZM75.1082 298.856C76.4522 298.856 77.5442 299.306 78.3842 300.206C79.1762 301.07 79.5722 302.168 79.5722 303.5C79.5722 304.832 79.1762 305.93 78.3842 306.794C77.5442 307.694 76.4522 308.144 75.1082 308.144C73.7642 308.144 72.6722 307.694 71.8322 306.794C71.0402 305.93 70.6442 304.832 70.6442 303.5C70.6442 302.168 71.0402 301.07 71.8322 300.206C72.6722 299.306 73.7642 298.856 75.1082 298.856ZM75.1082 306.92C76.0802 306.92 76.8482 306.584 77.4122 305.912C77.9522 305.276 78.2222 304.472 78.2222 303.5C78.2222 302.528 77.9522 301.724 77.4122 301.088C76.8482 300.416 76.0802 300.08 75.1082 300.08C74.1362 300.08 73.3682 300.416 72.8042 301.088C72.2642 301.724 71.9942 302.528 71.9942 303.5C71.9942 304.472 72.2642 305.276 72.8042 305.912C73.3682 306.584 74.1362 306.92 75.1082 306.92ZM86.1144 298.856V300.206H85.9524C84.9804 300.206 84.1884 300.596 83.5764 301.376C83.0004 302.12 82.7124 303.008 82.7124 304.04V308H81.3624V299H82.7124V301.214C83.0004 300.278 83.6244 299.588 84.5844 299.144C84.9804 298.952 85.4604 298.856 86.0244 298.856H86.1144ZM87.5675 299H88.9175V308H87.5675V299ZM88.9715 295.724V297.488H87.5135V295.724H88.9715ZM95.2729 306.92C96.4849 306.92 97.3549 306.416 97.8829 305.408H99.3589C99.0469 306.224 98.5489 306.884 97.8649 307.388C97.1929 307.892 96.3229 308.144 95.2549 308.144C93.8989 308.144 92.7949 307.694 91.9429 306.794C91.1149 305.918 90.7009 304.82 90.7009 303.5C90.7009 302.168 91.0969 301.07 91.8889 300.206C92.7289 299.306 93.8209 298.856 95.1649 298.856C96.5089 298.856 97.6009 299.306 98.4409 300.206C99.2329 301.07 99.6289 302.168 99.6289 303.5V304.04H92.0869C92.1829 304.868 92.5129 305.552 93.0769 306.092C93.6529 306.644 94.3849 306.92 95.2729 306.92ZM95.1649 300.08C94.3369 300.08 93.6409 300.338 93.0769 300.854C92.5489 301.346 92.2249 301.988 92.1049 302.78H98.2249C98.1049 301.988 97.7809 301.346 97.2529 300.854C96.6889 300.338 95.9929 300.08 95.1649 300.08ZM106.57 301.412C106.45 300.476 105.694 300.008 104.302 300.008C102.922 300.008 102.232 300.44 102.232 301.304C102.232 301.664 102.376 301.94 102.664 302.132C102.964 302.312 103.336 302.462 103.78 302.582C104.224 302.702 104.704 302.816 105.22 302.924C105.748 303.02 106.234 303.164 106.678 303.356C107.122 303.536 107.488 303.788 107.776 304.112C108.076 304.436 108.226 304.88 108.226 305.444C108.226 306.32 107.896 306.992 107.236 307.46C106.576 307.916 105.682 308.144 104.554 308.144C103.354 308.144 102.4 307.844 101.692 307.244C101.044 306.716 100.696 306.026 100.648 305.174H102.052C102.136 306.002 102.604 306.56 103.456 306.848C103.768 306.944 104.074 306.992 104.374 306.992C104.686 306.992 104.974 306.974 105.238 306.938C105.502 306.902 105.76 306.836 106.012 306.74C106.588 306.512 106.876 306.122 106.876 305.57C106.876 305.198 106.726 304.916 106.426 304.724C106.138 304.52 105.772 304.358 105.328 304.238C104.884 304.106 104.398 303.992 103.87 303.896C103.354 303.788 102.874 303.644 102.43 303.464C101.986 303.284 101.614 303.038 101.314 302.726C101.026 302.414 100.882 301.982 100.882 301.43C100.882 300.614 101.176 299.984 101.764 299.54C102.364 299.084 103.246 298.856 104.41 298.856C105.514 298.856 106.384 299.12 107.02 299.648C107.548 300.092 107.854 300.68 107.938 301.412H106.57Z" fill="#9D9D9D"/>
<path d="M291.328 269.672C291.328 270.36 291.12 271.024 290.704 271.664C290.304 272.304 289.792 272.904 289.168 273.464C288.544 274.024 287.864 274.552 287.128 275.048C286.408 275.544 285.728 276.032 285.088 276.512C284.448 276.976 283.904 277.44 283.456 277.904C283.024 278.352 282.784 278.808 282.736 279.272H291.28V281H280.6V280.016C280.6 279.232 280.816 278.52 281.248 277.88C281.696 277.224 282.248 276.616 282.904 276.056C283.576 275.48 284.296 274.944 285.064 274.448C285.832 273.936 286.544 273.424 287.2 272.912C287.872 272.4 288.424 271.88 288.856 271.352C289.304 270.824 289.528 270.256 289.528 269.648C289.528 268.72 289.216 267.992 288.592 267.464C287.984 266.936 287.128 266.672 286.024 266.672C284.92 266.672 284.032 266.912 283.36 267.392C282.704 267.856 282.312 268.536 282.184 269.432H280.384C280.512 268.088 281.096 267 282.136 266.168C283.176 265.336 284.432 264.92 285.904 264.92C287.584 264.92 288.92 265.368 289.912 266.264C290.856 267.128 291.328 268.264 291.328 269.672ZM300.587 264.68L295.091 281.768H293.411L298.907 264.68H300.587ZM313.717 275.336V276.944H311.581V281H309.781V276.944H302.197V275.192L308.869 265.112H311.581V275.336H313.717ZM309.781 275.336V266.648L303.877 275.336H309.781Z" fill="white"/>
<path d="M62.1695 265.112V281H60.3695V266.84H57.0095V265.112H62.1695ZM75.3648 265.112V281H73.5648V266.84H70.2048V265.112H75.3648ZM83.7602 278.552V281H81.4322V278.552H83.7602ZM97.0112 269.672C97.0112 270.36 96.8032 271.024 96.3872 271.664C95.9872 272.304 95.4752 272.904 94.8512 273.464C94.2272 274.024 93.5472 274.552 92.8112 275.048C92.0912 275.544 91.4112 276.032 90.7712 276.512C90.1312 276.976 89.5872 277.44 89.1392 277.904C88.7072 278.352 88.4672 278.808 88.4192 279.272H96.9632V281H86.2832V280.016C86.2832 279.232 86.4992 278.52 86.9312 277.88C87.3792 277.224 87.9312 276.616 88.5872 276.056C89.2592 275.48 89.9792 274.944 90.7472 274.448C91.5152 273.936 92.2272 273.424 92.8832 272.912C93.5552 272.4 94.1072 271.88 94.5392 271.352C94.9872 270.824 95.2112 270.256 95.2112 269.648C95.2112 268.72 94.8992 267.992 94.2752 267.464C93.6672 266.936 92.8112 266.672 91.7072 266.672C90.6032 266.672 89.7152 266.912 89.0432 267.392C88.3872 267.856 87.9952 268.536 87.8672 269.432H86.0672C86.1952 268.088 86.7792 267 87.8192 266.168C88.8592 265.336 90.1152 264.92 91.5872 264.92C93.2672 264.92 94.6032 265.368 95.5952 266.264C96.5392 267.128 97.0112 268.264 97.0112 269.672Z" fill="white"/>
<path d="M164.995 272.528C165.923 272.88 166.643 273.408 167.155 274.112C167.667 274.8 167.923 275.536 167.923 276.32C167.923 277.104 167.779 277.792 167.491 278.384C167.219 278.96 166.835 279.456 166.339 279.872C165.315 280.752 164.043 281.192 162.523 281.192C161.019 281.192 159.731 280.768 158.659 279.92C157.587 279.056 156.987 278.016 156.859 276.8H158.683C158.811 277.536 159.235 278.16 159.955 278.672C160.691 279.184 161.547 279.44 162.523 279.44C163.627 279.44 164.515 279.152 165.187 278.576C165.811 278.032 166.123 277.336 166.123 276.488C166.123 275.656 165.803 274.952 165.163 274.376C164.491 273.768 163.667 273.464 162.691 273.464H160.867V271.808H162.475C163.307 271.808 164.035 271.568 164.659 271.088C165.283 270.608 165.595 269.984 165.595 269.216C165.595 268.448 165.331 267.832 164.803 267.368C164.275 266.904 163.499 266.672 162.475 266.672C161.467 266.672 160.667 266.896 160.075 267.344C159.499 267.792 159.155 268.32 159.043 268.928H157.291C157.403 267.872 157.891 266.96 158.755 266.192C159.715 265.344 160.923 264.92 162.379 264.92C163.915 264.92 165.139 265.32 166.051 266.12C166.947 266.888 167.395 267.896 167.395 269.144C167.395 269.88 167.123 270.6 166.579 271.304C166.099 271.96 165.571 272.368 164.995 272.528ZM172.958 271.448C173.774 270.952 174.646 270.704 175.574 270.704C176.502 270.704 177.294 270.832 177.95 271.088C178.606 271.344 179.166 271.704 179.63 272.168C180.622 273.128 181.118 274.376 181.118 275.912C181.118 277.384 180.606 278.632 179.582 279.656C178.558 280.68 177.294 281.192 175.79 281.192C173.966 281.192 172.542 280.696 171.518 279.704C170.766 278.984 170.286 278.088 170.078 277.016H171.926C172.294 278.104 173.046 278.84 174.182 279.224C174.614 279.368 175.11 279.44 175.67 279.44C176.246 279.44 176.75 279.352 177.182 279.176C177.63 278.984 178.014 278.728 178.334 278.408C178.99 277.72 179.318 276.888 179.318 275.912C179.318 274.872 178.99 274.024 178.334 273.368C177.678 272.712 176.822 272.384 175.766 272.384C175.046 272.384 174.406 272.52 173.846 272.792C173.302 273.048 172.894 273.336 172.622 273.656L170.966 272.648L172.046 265.112H180.326V266.84H173.678L172.958 271.448ZM190.735 281H188.935V264.2H190.735V281ZM195.657 270.944C196.633 269.52 198.065 268.808 199.953 268.808C201.681 268.808 203.081 269.408 204.153 270.608C205.225 271.792 205.761 273.256 205.761 275C205.761 276.744 205.225 278.208 204.153 279.392C203.081 280.592 201.633 281.192 199.809 281.192C198.001 281.192 196.617 280.488 195.657 279.08V281H193.857V264.2H195.657V270.944ZM199.713 279.56C200.993 279.56 202.033 279.112 202.833 278.216C203.585 277.368 203.961 276.296 203.961 275C203.961 273.704 203.585 272.632 202.833 271.784C202.033 270.888 200.993 270.44 199.713 270.44C198.417 270.44 197.393 270.888 196.641 271.784C195.921 272.632 195.561 273.704 195.561 275C195.561 276.296 195.921 277.368 196.641 278.216C197.393 279.112 198.417 279.56 199.713 279.56ZM215.163 272.216C215.003 270.968 213.995 270.344 212.139 270.344C210.299 270.344 209.379 270.92 209.379 272.072C209.379 272.552 209.571 272.92 209.955 273.176C210.355 273.416 210.851 273.616 211.443 273.776C212.035 273.936 212.675 274.088 213.363 274.232C214.067 274.36 214.715 274.552 215.307 274.808C215.899 275.048 216.387 275.384 216.771 275.816C217.171 276.248 217.371 276.84 217.371 277.592C217.371 278.76 216.931 279.656 216.051 280.28C215.171 280.888 213.979 281.192 212.475 281.192C210.875 281.192 209.603 280.792 208.659 279.992C207.795 279.288 207.331 278.368 207.267 277.232H209.139C209.251 278.336 209.875 279.08 211.011 279.464C211.427 279.592 211.835 279.656 212.235 279.656C212.651 279.656 213.035 279.632 213.387 279.584C213.739 279.536 214.083 279.448 214.419 279.32C215.187 279.016 215.571 278.496 215.571 277.76C215.571 277.264 215.371 276.888 214.971 276.632C214.587 276.36 214.099 276.144 213.507 275.984C212.915 275.808 212.267 275.656 211.563 275.528C210.875 275.384 210.235 275.192 209.643 274.952C209.051 274.712 208.555 274.384 208.155 273.968C207.771 273.552 207.579 272.976 207.579 272.24C207.579 271.152 207.971 270.312 208.755 269.72C209.555 269.112 210.731 268.808 212.283 268.808C213.755 268.808 214.915 269.16 215.763 269.864C216.467 270.456 216.875 271.24 216.987 272.216H215.163Z" fill="white"/>
<path d="M253 165.5C253 174.233 251.28 182.88 247.938 190.948C244.596 199.017 239.698 206.348 233.523 212.523C227.348 218.698 220.017 223.596 211.948 226.938C203.88 230.28 195.233 232 186.5 232C177.767 232 169.12 230.28 161.052 226.938C152.983 223.596 145.652 218.698 139.477 212.523C133.302 206.348 128.404 199.017 125.062 190.948C121.72 182.88 120 174.233 120 165.5C120 156.767 121.72 148.12 125.062 140.052C128.404 131.983 133.302 124.652 139.477 118.477C145.653 112.302 152.983 107.404 161.052 104.062C169.12 100.72 177.767 99 186.5 99C195.233 99 203.88 100.72 211.948 104.062C220.017 107.404 227.348 112.302 233.523 118.477C239.698 124.653 244.596 131.983 247.938 140.052C251.28 148.12 253 156.767 253 165.5L253 165.5Z" stroke="#747474" stroke-width="8"/>
<path d="M186.5 99C197.436 99 208.203 101.697 217.848 106.852C227.493 112.007 235.717 119.462 241.793 128.555C247.868 137.648 251.608 148.099 252.68 158.982C253.752 169.865 252.123 180.845 247.938 190.948C243.753 201.052 237.141 209.967 228.687 216.905C220.234 223.843 210.199 228.589 199.474 230.722C188.748 232.856 177.661 232.311 167.196 229.137C156.731 225.962 147.21 220.256 139.477 212.523" stroke="#00FFA3" stroke-width="8"/>
<path d="M41.115 66.885L34.245 60L41.115 53.115L39 51L30 60L39 69L41.115 66.885Z" fill="white"/>
<path d="M0 372L32 340H375V833H0V372Z" fill="#414141"/>
<path d="M51.264 373.112V382.16C51.264 384.272 50.632 385.976 49.368 387.272C48.12 388.552 46.496 389.192 44.496 389.192C42.512 389.192 40.888 388.552 39.624 387.272C38.376 385.976 37.752 384.272 37.752 382.16V373.112H39.552V382.208C39.552 383.92 40.064 385.256 41.088 386.216C41.968 387.032 43.104 387.44 44.496 387.44C45.888 387.44 47.032 387.032 47.928 386.216C48.952 385.272 49.464 383.936 49.464 382.208V373.112H51.264ZM56.1178 378.92C57.0778 377.512 58.5098 376.808 60.4138 376.808C62.1418 376.808 63.5418 377.408 64.6138 378.608C65.6858 379.792 66.2218 381.256 66.2218 383C66.2218 384.744 65.6858 386.208 64.6138 387.392C63.5418 388.592 62.1018 389.192 60.2938 389.192C58.4858 389.192 57.0938 388.48 56.1178 387.056V393.752H54.3178V377H56.1178V378.92ZM60.1738 378.44C58.8778 378.44 57.8538 378.888 57.1018 379.784C56.3818 380.632 56.0218 381.704 56.0218 383C56.0218 384.296 56.3818 385.368 57.1018 386.216C57.8538 387.112 58.8778 387.56 60.1738 387.56C61.4538 387.56 62.4938 387.112 63.2938 386.216C64.0458 385.368 64.4218 384.296 64.4218 383C64.4218 381.704 64.0458 380.632 63.2938 379.784C62.4938 378.888 61.4538 378.44 60.1738 378.44ZM87.7652 373.112V389H85.6772L75.8612 375.584V389H74.0612V373.112H76.1492L85.9652 386.48V373.112H87.7652ZM96.4198 387.56C98.0358 387.56 99.1958 386.888 99.8998 385.544H101.868C101.452 386.632 100.788 387.512 99.8758 388.184C98.9798 388.856 97.8198 389.192 96.3958 389.192C94.5878 389.192 93.1158 388.592 91.9798 387.392C90.8758 386.224 90.3238 384.76 90.3238 383C90.3238 381.224 90.8518 379.76 91.9078 378.608C93.0278 377.408 94.4838 376.808 96.2758 376.808C98.0678 376.808 99.5238 377.408 100.644 378.608C101.7 379.76 102.228 381.224 102.228 383V383.72H92.1718C92.2998 384.824 92.7398 385.736 93.4918 386.456C94.2598 387.192 95.2358 387.56 96.4198 387.56ZM96.2758 378.44C95.1718 378.44 94.2438 378.784 93.4918 379.472C92.7878 380.128 92.3558 380.984 92.1958 382.04H100.356C100.196 380.984 99.7638 380.128 99.0598 379.472C98.3078 378.784 97.3798 378.44 96.2758 378.44ZM109.285 382.808L113.941 389H111.637L108.253 384.104L104.845 389H102.565L107.197 382.808L102.853 377H105.157L108.253 381.536L111.325 377H113.629L109.285 382.808ZM116.903 389V378.584H114.455V377H116.903V372.704H118.703V377H121.463V378.584H118.703V389H116.903Z" fill="white"/>
<path d="M45.918 430.38H41.76V441H40.41V430.38H36.252V429.084H45.918V430.38ZM50.8693 431.856V433.206H50.7073C49.7353 433.206 48.9433 433.596 48.3313 434.376C47.7553 435.12 47.4673 436.008 47.4673 437.04V441H46.1173V432H47.4673V434.214C47.7553 433.278 48.3793 432.588 49.3393 432.144C49.7353 431.952 50.2153 431.856 50.7793 431.856H50.8693ZM52.3223 432H53.6723V441H52.3223V432ZM53.7263 428.724V430.488H52.2683V428.724H53.7263ZM60.1718 439.92C60.7478 439.92 61.2578 439.758 61.7018 439.434C62.1458 439.11 62.4698 438.69 62.6738 438.174H64.1318C63.8558 439.062 63.3518 439.776 62.6198 440.316C61.8518 440.868 60.9398 441.144 59.8838 441.144C58.5638 441.144 57.4898 440.694 56.6618 439.794C55.8578 438.918 55.4558 437.82 55.4558 436.5C55.4558 435.18 55.8578 434.082 56.6618 433.206C57.4898 432.306 58.5638 431.856 59.8838 431.856C60.9398 431.856 61.8518 432.132 62.6198 432.684C63.3518 433.224 63.8558 433.938 64.1318 434.826H62.6738C62.4698 434.31 62.1458 433.89 61.7018 433.566C61.2578 433.242 60.7478 433.08 60.1718 433.08C59.5958 433.08 59.1038 433.17 58.6958 433.35C58.2998 433.53 57.9638 433.776 57.6878 434.088C57.0998 434.736 56.8058 435.54 56.8058 436.5C56.8058 437.46 57.0998 438.264 57.6878 438.912C58.2878 439.584 59.1158 439.92 60.1718 439.92ZM69.8188 439.92C71.0308 439.92 71.9008 439.416 72.4288 438.408H73.9048C73.5928 439.224 73.0948 439.884 72.4108 440.388C71.7388 440.892 70.8688 441.144 69.8008 441.144C68.4448 441.144 67.3408 440.694 66.4888 439.794C65.6608 438.918 65.2468 437.82 65.2468 436.5C65.2468 435.168 65.6428 434.07 66.4348 433.206C67.2748 432.306 68.3668 431.856 69.7108 431.856C71.0548 431.856 72.1468 432.306 72.9868 433.206C73.7788 434.07 74.1748 435.168 74.1748 436.5V437.04H66.6328C66.7288 437.868 67.0588 438.552 67.6228 439.092C68.1988 439.644 68.9308 439.92 69.8188 439.92ZM69.7108 433.08C68.8828 433.08 68.1868 433.338 67.6228 433.854C67.0948 434.346 66.7708 434.988 66.6508 435.78H72.7708C72.6508 434.988 72.3268 434.346 71.7988 433.854C71.2348 433.338 70.5388 433.08 69.7108 433.08ZM77.1743 433.44C77.8943 432.384 78.9683 431.856 80.3963 431.856C81.6923 431.856 82.7423 432.306 83.5463 433.206C84.3503 434.094 84.7523 435.192 84.7523 436.5C84.7523 437.808 84.3503 438.906 83.5463 439.794C82.7423 440.694 81.6623 441.144 80.3063 441.144C78.9503 441.144 77.9063 440.61 77.1743 439.542V444.564H75.8243V432H77.1743V433.44ZM80.2163 433.08C79.2443 433.08 78.4763 433.416 77.9123 434.088C77.3723 434.724 77.1023 435.528 77.1023 436.5C77.1023 437.472 77.3723 438.276 77.9123 438.912C78.4763 439.584 79.2443 439.92 80.2163 439.92C81.1763 439.92 81.9563 439.584 82.5563 438.912C83.1203 438.276 83.4023 437.472 83.4023 436.5C83.4023 435.528 83.1203 434.724 82.5563 434.088C81.9563 433.416 81.1763 433.08 80.2163 433.08ZM91.9818 430.38V434.376H98.6058V435.69H91.9818V439.704H99.3978V441H90.6318V429.084H99.3978V430.38H91.9818ZM105.237 436.356L108.729 441H107.001L104.463 437.328L101.907 441H100.197L103.671 436.356L100.413 432H102.141L104.463 435.402L106.767 432H108.495L105.237 436.356ZM110.951 441V433.188H109.115V432H110.951V428.778H112.301V432H114.371V433.188H112.301V441H110.951ZM119.688 439.92C120.9 439.92 121.77 439.416 122.298 438.408H123.774C123.462 439.224 122.964 439.884 122.28 440.388C121.608 440.892 120.738 441.144 119.67 441.144C118.314 441.144 117.21 440.694 116.358 439.794C115.53 438.918 115.116 437.82 115.116 436.5C115.116 435.168 115.512 434.07 116.304 433.206C117.144 432.306 118.236 431.856 119.58 431.856C120.924 431.856 122.016 432.306 122.856 433.206C123.648 434.07 124.044 435.168 124.044 436.5V437.04H116.502C116.598 437.868 116.928 438.552 117.492 439.092C118.068 439.644 118.8 439.92 119.688 439.92ZM119.58 433.08C118.752 433.08 118.056 433.338 117.492 433.854C116.964 434.346 116.64 434.988 116.52 435.78H122.64C122.52 434.988 122.196 434.346 121.668 433.854C121.104 433.338 120.408 433.08 119.58 433.08ZM127.043 432V433.404C127.367 432.972 127.763 432.606 128.231 432.306C128.699 432.006 129.233 431.856 129.833 431.856C130.433 431.856 130.949 431.94 131.381 432.108C131.813 432.276 132.191 432.528 132.515 432.864C133.259 433.596 133.631 434.562 133.631 435.762V441H132.281V435.798C132.281 434.97 132.047 434.31 131.579 433.818C131.111 433.326 130.505 433.08 129.761 433.08C129.005 433.08 128.363 433.332 127.835 433.836C127.307 434.352 127.043 435.012 127.043 435.816V441H125.693V432H127.043ZM136.65 441V433.188H134.814V432H136.65V428.778H138V432H140.07V433.188H138V441H136.65ZM141.549 432H142.899V441H141.549V432ZM142.953 428.724V430.488H141.495V428.724H142.953ZM149.146 431.856C150.49 431.856 151.582 432.306 152.422 433.206C153.214 434.07 153.61 435.168 153.61 436.5C153.61 437.832 153.214 438.93 152.422 439.794C151.582 440.694 150.49 441.144 149.146 441.144C147.802 441.144 146.71 440.694 145.87 439.794C145.078 438.93 144.682 437.832 144.682 436.5C144.682 435.168 145.078 434.07 145.87 433.206C146.71 432.306 147.802 431.856 149.146 431.856ZM149.146 439.92C150.118 439.92 150.886 439.584 151.45 438.912C151.99 438.276 152.26 437.472 152.26 436.5C152.26 435.528 151.99 434.724 151.45 434.088C150.886 433.416 150.118 433.08 149.146 433.08C148.174 433.08 147.406 433.416 146.842 434.088C146.302 434.724 146.032 435.528 146.032 436.5C146.032 437.472 146.302 438.276 146.842 438.912C147.406 439.584 148.174 439.92 149.146 439.92ZM156.75 432V433.404C157.074 432.972 157.47 432.606 157.938 432.306C158.406 432.006 158.94 431.856 159.54 431.856C160.14 431.856 160.656 431.94 161.088 432.108C161.52 432.276 161.898 432.528 162.222 432.864C162.966 433.596 163.338 434.562 163.338 435.762V441H161.988V435.798C161.988 434.97 161.754 434.31 161.286 433.818C160.818 433.326 160.212 433.08 159.468 433.08C158.712 433.08 158.07 433.332 157.542 433.836C157.014 434.352 156.75 435.012 156.75 435.816V441H155.4V432H156.75ZM170.888 434.412C170.768 433.476 170.012 433.008 168.62 433.008C167.24 433.008 166.55 433.44 166.55 434.304C166.55 434.664 166.694 434.94 166.982 435.132C167.282 435.312 167.654 435.462 168.098 435.582C168.542 435.702 169.022 435.816 169.538 435.924C170.066 436.02 170.552 436.164 170.996 436.356C171.44 436.536 171.806 436.788 172.094 437.112C172.394 437.436 172.544 437.88 172.544 438.444C172.544 439.32 172.214 439.992 171.554 440.46C170.894 440.916 170 441.144 168.872 441.144C167.672 441.144 166.718 440.844 166.01 440.244C165.362 439.716 165.014 439.026 164.966 438.174H166.37C166.454 439.002 166.922 439.56 167.774 439.848C168.086 439.944 168.392 439.992 168.692 439.992C169.004 439.992 169.292 439.974 169.556 439.938C169.82 439.902 170.078 439.836 170.33 439.74C170.906 439.512 171.194 439.122 171.194 438.57C171.194 438.198 171.044 437.916 170.744 437.724C170.456 437.52 170.09 437.358 169.646 437.238C169.202 437.106 168.716 436.992 168.188 436.896C167.672 436.788 167.192 436.644 166.748 436.464C166.304 436.284 165.932 436.038 165.632 435.726C165.344 435.414 165.2 434.982 165.2 434.43C165.2 433.614 165.494 432.984 166.082 432.54C166.682 432.084 167.564 431.856 168.728 431.856C169.832 431.856 170.702 432.12 171.338 432.648C171.866 433.092 172.172 433.68 172.256 434.412H170.888Z" fill="white"/>
<path d="M302.162 433.836C302.774 433.464 303.428 433.278 304.124 433.278C304.82 433.278 305.414 433.374 305.906 433.566C306.398 433.758 306.818 434.028 307.166 434.376C307.91 435.096 308.282 436.032 308.282 437.184C308.282 438.288 307.898 439.224 307.13 439.992C306.362 440.76 305.414 441.144 304.286 441.144C302.918 441.144 301.85 440.772 301.082 440.028C300.518 439.488 300.158 438.816 300.002 438.012H301.388C301.664 438.828 302.228 439.38 303.08 439.668C303.404 439.776 303.776 439.83 304.196 439.83C304.628 439.83 305.006 439.764 305.33 439.632C305.666 439.488 305.954 439.296 306.194 439.056C306.686 438.54 306.932 437.916 306.932 437.184C306.932 436.404 306.686 435.768 306.194 435.276C305.702 434.784 305.06 434.538 304.268 434.538C303.728 434.538 303.248 434.64 302.828 434.844C302.42 435.036 302.114 435.252 301.91 435.492L300.668 434.736L301.478 429.084H307.688V430.38H302.702L302.162 433.836ZM313.067 431.712L314.399 433.188L313.481 433.854L312.509 432.144L311.519 433.854L310.601 433.188L311.933 431.73L310.007 431.316L310.349 430.236L312.149 431.046L311.933 429.084H313.067L312.851 431.046L314.651 430.236L314.993 431.316L313.067 431.712ZM322.787 434.448C323.495 434.724 324.053 435.144 324.461 435.708C324.869 436.272 325.073 436.86 325.073 437.472C325.073 438.072 324.977 438.594 324.785 439.038C324.593 439.47 324.317 439.842 323.957 440.154C323.201 440.814 322.151 441.144 320.807 441.144C319.463 441.144 318.413 440.814 317.657 440.154C316.913 439.506 316.541 438.648 316.541 437.58C316.541 436.896 316.745 436.272 317.153 435.708C317.561 435.144 318.119 434.724 318.827 434.448C318.371 434.28 317.969 434.004 317.621 433.62C317.213 433.152 317.009 432.594 317.009 431.946C317.009 431.046 317.333 430.32 317.981 429.768C318.629 429.216 319.571 428.94 320.807 428.94C322.043 428.94 322.985 429.216 323.633 429.768C324.281 430.32 324.605 431.046 324.605 431.946C324.605 432.894 324.203 433.62 323.399 434.124C323.183 434.268 322.979 434.376 322.787 434.448ZM320.807 433.872C321.443 433.872 321.989 433.728 322.445 433.44C322.985 433.092 323.255 432.624 323.255 432.036C323.255 431.448 323.027 431.004 322.571 430.704C322.115 430.392 321.527 430.236 320.807 430.236C320.087 430.236 319.499 430.392 319.043 430.704C318.587 431.004 318.359 431.448 318.359 432.036C318.359 432.624 318.605 433.08 319.097 433.404C319.601 433.716 320.171 433.872 320.807 433.872ZM320.807 439.848C321.707 439.848 322.415 439.644 322.931 439.236C323.459 438.828 323.723 438.27 323.723 437.562C323.723 436.818 323.435 436.212 322.859 435.744C322.319 435.324 321.635 435.114 320.807 435.114C319.979 435.114 319.295 435.324 318.755 435.744C318.179 436.212 317.891 436.812 317.891 437.544C317.891 438.264 318.149 438.828 318.665 439.236C319.193 439.644 319.907 439.848 320.807 439.848Z" fill="white"/>
<path d="M42.264 479.872L47.628 487H45.936L41.274 480.79L38.808 483.094V487H37.458V475.084H38.808V481.294L45.432 475.084H47.34L42.264 479.872ZM51.9067 485.92C53.1187 485.92 53.9887 485.416 54.5167 484.408H55.9927C55.6807 485.224 55.1827 485.884 54.4987 486.388C53.8267 486.892 52.9567 487.144 51.8887 487.144C50.5327 487.144 49.4287 486.694 48.5767 485.794C47.7487 484.918 47.3347 483.82 47.3347 482.5C47.3347 481.168 47.7307 480.07 48.5227 479.206C49.3627 478.306 50.4547 477.856 51.7987 477.856C53.1427 477.856 54.2347 478.306 55.0747 479.206C55.8667 480.07 56.2627 481.168 56.2627 482.5V483.04H48.7207C48.8167 483.868 49.1467 484.552 49.7107 485.092C50.2867 485.644 51.0187 485.92 51.9067 485.92ZM51.7987 479.08C50.9707 479.08 50.2747 479.338 49.7107 479.854C49.1827 480.346 48.8587 480.988 48.7387 481.78H54.8587C54.7387 480.988 54.4147 480.346 53.8867 479.854C53.3227 479.338 52.6267 479.08 51.7987 479.08ZM58.7787 487V479.188H56.9427V478H58.7787V474.778H60.1287V478H62.1987V479.188H60.1287V487H58.7787ZM64.6498 487V479.188H62.8138V478H64.6498V474.778H65.9998V478H68.0698V479.188H65.9998V487H64.6498ZM70.8989 487H69.5489V474.4H70.8989V487ZM77.2543 485.92C78.4663 485.92 79.3363 485.416 79.8643 484.408H81.3403C81.0283 485.224 80.5303 485.884 79.8463 486.388C79.1743 486.892 78.3043 487.144 77.2363 487.144C75.8803 487.144 74.7763 486.694 73.9243 485.794C73.0963 484.918 72.6823 483.82 72.6823 482.5C72.6823 481.168 73.0783 480.07 73.8703 479.206C74.7103 478.306 75.8023 477.856 77.1463 477.856C78.4903 477.856 79.5823 478.306 80.4223 479.206C81.2143 480.07 81.6103 481.168 81.6103 482.5V483.04H74.0683C74.1643 483.868 74.4943 484.552 75.0583 485.092C75.6343 485.644 76.3663 485.92 77.2543 485.92ZM77.1463 479.08C76.3183 479.08 75.6223 479.338 75.0583 479.854C74.5303 480.346 74.2063 480.988 74.0863 481.78H80.2063C80.0863 480.988 79.7623 480.346 79.2343 479.854C78.6703 479.338 77.9743 479.08 77.1463 479.08ZM96.4879 478.234C96.4879 479.542 95.9539 480.436 94.8859 480.916C95.8699 481.24 96.5419 481.834 96.9019 482.698C97.0339 483.034 97.0999 483.424 97.0999 483.868C97.0999 485.308 96.3379 486.268 94.8139 486.748C94.3099 486.916 93.7159 487 93.0319 487H87.3799V475.084H92.7259C94.0099 475.084 94.9879 475.432 95.6599 476.128C96.2119 476.68 96.4879 477.382 96.4879 478.234ZM88.7299 480.412H92.7259C93.8299 480.412 94.5679 480.034 94.9399 479.278C95.0719 479.014 95.1379 478.732 95.1379 478.432C95.1379 478.12 95.0959 477.85 95.0119 477.622C94.9279 477.382 94.7959 477.172 94.6159 476.992C94.2199 476.572 93.6379 476.362 92.8699 476.362H88.7299V480.412ZM93.1759 485.722C94.0039 485.722 94.6399 485.554 95.0839 485.218C95.5279 484.87 95.7499 484.384 95.7499 483.76C95.7499 483.16 95.5339 482.668 95.1019 482.284C94.6219 481.852 93.9319 481.636 93.0319 481.636H88.7299V485.722H93.1759ZM103.024 485.92C104.236 485.92 105.106 485.416 105.634 484.408H107.11C106.798 485.224 106.3 485.884 105.616 486.388C104.944 486.892 104.074 487.144 103.006 487.144C101.65 487.144 100.546 486.694 99.6938 485.794C98.8658 484.918 98.4518 483.82 98.4518 482.5C98.4518 481.168 98.8478 480.07 99.6398 479.206C100.48 478.306 101.572 477.856 102.916 477.856C104.26 477.856 105.352 478.306 106.192 479.206C106.984 480.07 107.38 481.168 107.38 482.5V483.04H99.8378C99.9338 483.868 100.264 484.552 100.828 485.092C101.404 485.644 102.136 485.92 103.024 485.92ZM102.916 479.08C102.088 479.08 101.392 479.338 100.828 479.854C100.3 480.346 99.9758 480.988 99.8558 481.78H105.976C105.856 480.988 105.532 480.346 105.004 479.854C104.44 479.338 103.744 479.08 102.916 479.08ZM110.379 487H109.029V474.4H110.379V487ZM114.071 487H112.721V474.4H114.071V487ZM121.9 476.92C121.672 477.112 121.516 477.328 121.432 477.568C121.36 477.808 121.324 478.066 121.324 478.342C121.324 478.606 121.438 478.852 121.666 479.08C121.906 479.308 122.218 479.5 122.602 479.656C122.986 479.812 123.424 479.95 123.916 480.07C124.408 480.19 124.906 480.316 125.41 480.448C125.926 480.568 126.43 480.712 126.922 480.88C127.414 481.036 127.852 481.24 128.236 481.492C129.088 482.032 129.514 482.77 129.514 483.706C129.514 484.822 129.094 485.674 128.254 486.262C127.426 486.85 126.274 487.144 124.798 487.144C123.13 487.144 121.858 486.796 120.982 486.1C120.202 485.476 119.758 484.588 119.65 483.436H121.054C121.102 484.252 121.498 484.876 122.242 485.308C122.89 485.68 123.748 485.866 124.816 485.866C127.048 485.866 128.164 485.164 128.164 483.76C128.164 483.28 127.96 482.902 127.552 482.626C127.156 482.35 126.652 482.122 126.04 481.942C125.44 481.762 124.786 481.594 124.078 481.438C123.382 481.282 122.728 481.084 122.116 480.844C121.516 480.592 121.012 480.268 120.604 479.872C120.208 479.464 120.01 478.918 120.01 478.234C120.01 477.262 120.382 476.47 121.126 475.858C121.87 475.246 122.992 474.94 124.492 474.94C126.004 474.94 127.174 475.288 128.002 475.984C128.758 476.596 129.16 477.382 129.208 478.342H127.822C127.702 477.358 127.066 476.704 125.914 476.38C125.506 476.26 124.996 476.2 124.384 476.2C123.784 476.2 123.274 476.272 122.854 476.416C122.446 476.548 122.128 476.716 121.9 476.92ZM136.934 479.818L134.684 487H133.136L130.31 478H131.75L133.91 485.326L136.196 478H137.672L139.958 485.326L142.118 478H143.558L140.732 487H139.184L136.934 479.818ZM144.889 478H146.239V487H144.889V478ZM146.293 474.724V476.488H144.835V474.724H146.293ZM149.93 478V479.404C150.254 478.972 150.65 478.606 151.118 478.306C151.586 478.006 152.12 477.856 152.72 477.856C153.32 477.856 153.836 477.94 154.268 478.108C154.7 478.276 155.078 478.528 155.402 478.864C156.146 479.596 156.518 480.562 156.518 481.762V487H155.168V481.798C155.168 480.97 154.934 480.31 154.466 479.818C153.998 479.326 153.392 479.08 152.648 479.08C151.892 479.08 151.25 479.332 150.722 479.836C150.194 480.352 149.93 481.012 149.93 481.816V487H148.58V478H149.93ZM165.795 479.44V478H167.145V486.73C167.145 488.026 166.773 489.01 166.029 489.682C165.297 490.366 164.307 490.708 163.059 490.708C161.811 490.708 160.833 490.468 160.125 489.988C159.429 489.508 158.955 488.872 158.703 488.08H160.197C160.581 489.016 161.457 489.484 162.825 489.484C163.869 489.484 164.625 489.244 165.093 488.764C165.561 488.284 165.795 487.576 165.795 486.64V485.398C165.063 486.466 163.989 487 162.573 487C161.277 487 160.221 486.556 159.405 485.668C158.613 484.804 158.217 483.724 158.217 482.428C158.217 481.132 158.613 480.052 159.405 479.188C160.221 478.3 161.307 477.856 162.663 477.856C164.031 477.856 165.075 478.384 165.795 479.44ZM162.753 485.776C163.245 485.776 163.683 485.692 164.067 485.524C164.451 485.344 164.781 485.104 165.057 484.804C165.597 484.18 165.867 483.388 165.867 482.428C165.867 481.468 165.597 480.676 165.057 480.052C164.469 479.404 163.701 479.08 162.753 479.08C161.781 479.08 161.001 479.404 160.413 480.052C159.849 480.688 159.567 481.48 159.567 482.428C159.567 483.376 159.849 484.168 160.413 484.804C161.001 485.452 161.781 485.776 162.753 485.776Z" fill="white"/>
<path d="M308.444 482.752V483.958H306.842V487H305.492V483.958H299.804V482.644L304.808 475.084H306.842V482.752H308.444ZM305.492 482.752V476.236L301.064 482.752H305.492ZM313.067 477.712L314.399 479.188L313.481 479.854L312.509 478.144L311.519 479.854L310.601 479.188L311.933 477.73L310.007 477.316L310.349 476.236L312.149 477.046L311.933 475.084H313.067L312.851 477.046L314.651 476.236L314.993 477.316L313.067 477.712ZM323.291 477.856C322.955 476.788 322.241 476.254 321.149 476.254C320.093 476.254 319.289 476.728 318.737 477.676C318.233 478.516 317.981 479.656 317.981 481.096C318.269 480.592 318.689 480.184 319.241 479.872C319.805 479.56 320.393 479.404 321.005 479.404C321.629 479.404 322.187 479.5 322.679 479.692C323.171 479.884 323.597 480.148 323.957 480.484C324.749 481.228 325.145 482.158 325.145 483.274C325.145 484.366 324.743 485.29 323.939 486.046C323.159 486.778 322.193 487.144 321.041 487.144C319.589 487.144 318.491 486.622 317.747 485.578C317.003 484.522 316.631 483.01 316.631 481.042C316.631 478.102 317.477 476.212 319.169 475.372C319.733 475.084 320.345 474.94 321.005 474.94C321.677 474.94 322.223 475.024 322.643 475.192C323.063 475.36 323.417 475.582 323.705 475.858C324.281 476.386 324.647 477.052 324.803 477.856H323.291ZM321.041 480.682C320.657 480.682 320.297 480.742 319.961 480.862C319.637 480.982 319.349 481.156 319.097 481.384C318.557 481.852 318.287 482.452 318.287 483.184C318.287 483.952 318.557 484.588 319.097 485.092C319.601 485.584 320.249 485.83 321.041 485.83C321.809 485.83 322.457 485.59 322.985 485.11C323.525 484.618 323.795 484.006 323.795 483.274C323.795 482.542 323.525 481.924 322.985 481.42C322.445 480.928 321.797 480.682 321.041 480.682Z" fill="white"/>
<path d="M227.138 478.504C227.138 479.02 226.982 479.518 226.67 479.998C226.37 480.478 225.986 480.928 225.518 481.348C225.05 481.768 224.54 482.164 223.988 482.536C223.448 482.908 222.938 483.274 222.458 483.634C221.978 483.982 221.57 484.33 221.234 484.678C220.91 485.014 220.73 485.356 220.694 485.704H227.102V487H219.092V486.262C219.092 485.674 219.254 485.14 219.578 484.66C219.914 484.168 220.328 483.712 220.82 483.292C221.324 482.86 221.864 482.458 222.44 482.086C223.016 481.702 223.55 481.318 224.042 480.934C224.546 480.55 224.96 480.16 225.284 479.764C225.62 479.368 225.788 478.942 225.788 478.486C225.788 477.79 225.554 477.244 225.086 476.848C224.63 476.452 223.988 476.254 223.16 476.254C222.332 476.254 221.666 476.434 221.162 476.794C220.67 477.142 220.376 477.652 220.28 478.324H218.93C219.026 477.316 219.464 476.5 220.244 475.876C221.024 475.252 221.966 474.94 223.07 474.94C224.33 474.94 225.332 475.276 226.076 475.948C226.784 476.596 227.138 477.448 227.138 478.504ZM230.969 479.836C231.581 479.464 232.235 479.278 232.931 479.278C233.627 479.278 234.221 479.374 234.713 479.566C235.205 479.758 235.625 480.028 235.973 480.376C236.717 481.096 237.089 482.032 237.089 483.184C237.089 484.288 236.705 485.224 235.937 485.992C235.169 486.76 234.221 487.144 233.093 487.144C231.725 487.144 230.657 486.772 229.889 486.028C229.325 485.488 228.965 484.816 228.809 484.012H230.195C230.471 484.828 231.035 485.38 231.887 485.668C232.211 485.776 232.583 485.83 233.003 485.83C233.435 485.83 233.813 485.764 234.137 485.632C234.473 485.488 234.761 485.296 235.001 485.056C235.493 484.54 235.739 483.916 235.739 483.184C235.739 482.404 235.493 481.768 235.001 481.276C234.509 480.784 233.867 480.538 233.075 480.538C232.535 480.538 232.055 480.64 231.635 480.844C231.227 481.036 230.921 481.252 230.717 481.492L229.475 480.736L230.285 475.084H236.495V476.38H231.509L230.969 479.836ZM244.301 487H242.951V474.4H244.301V487ZM247.993 479.458C248.725 478.39 249.799 477.856 251.215 477.856C252.511 477.856 253.561 478.306 254.365 479.206C255.169 480.094 255.571 481.192 255.571 482.5C255.571 483.808 255.169 484.906 254.365 485.794C253.561 486.694 252.475 487.144 251.107 487.144C249.751 487.144 248.713 486.616 247.993 485.56V487H246.643V474.4H247.993V479.458ZM251.035 485.92C251.995 485.92 252.775 485.584 253.375 484.912C253.939 484.276 254.221 483.472 254.221 482.5C254.221 481.528 253.939 480.724 253.375 480.088C252.775 479.416 251.995 479.08 251.035 479.08C250.063 479.08 249.295 479.416 248.731 480.088C248.191 480.724 247.921 481.528 247.921 482.5C247.921 483.472 248.191 484.276 248.731 484.912C249.295 485.584 250.063 485.92 251.035 485.92ZM262.622 480.412C262.502 479.476 261.746 479.008 260.354 479.008C258.974 479.008 258.284 479.44 258.284 480.304C258.284 480.664 258.428 480.94 258.716 481.132C259.016 481.312 259.388 481.462 259.832 481.582C260.276 481.702 260.756 481.816 261.272 481.924C261.8 482.02 262.286 482.164 262.73 482.356C263.174 482.536 263.54 482.788 263.828 483.112C264.128 483.436 264.278 483.88 264.278 484.444C264.278 485.32 263.948 485.992 263.288 486.46C262.628 486.916 261.734 487.144 260.606 487.144C259.406 487.144 258.452 486.844 257.744 486.244C257.096 485.716 256.748 485.026 256.7 484.174H258.104C258.188 485.002 258.656 485.56 259.508 485.848C259.82 485.944 260.126 485.992 260.426 485.992C260.738 485.992 261.026 485.974 261.29 485.938C261.554 485.902 261.812 485.836 262.064 485.74C262.64 485.512 262.928 485.122 262.928 484.57C262.928 484.198 262.778 483.916 262.478 483.724C262.19 483.52 261.824 483.358 261.38 483.238C260.936 483.106 260.45 482.992 259.922 482.896C259.406 482.788 258.926 482.644 258.482 482.464C258.038 482.284 257.666 482.038 257.366 481.726C257.078 481.414 256.934 480.982 256.934 480.43C256.934 479.614 257.228 478.984 257.816 478.54C258.416 478.084 259.298 477.856 260.462 477.856C261.566 477.856 262.436 478.12 263.072 478.648C263.6 479.092 263.906 479.68 263.99 480.412H262.622Z" fill="white"/>
<path d="M46.566 526.234C46.566 527.542 46.032 528.436 44.964 528.916C45.948 529.24 46.62 529.834 46.98 530.698C47.112 531.034 47.178 531.424 47.178 531.868C47.178 533.308 46.416 534.268 44.892 534.748C44.388 534.916 43.794 535 43.11 535H37.458V523.084H42.804C44.088 523.084 45.066 523.432 45.738 524.128C46.29 524.68 46.566 525.382 46.566 526.234ZM38.808 528.412H42.804C43.908 528.412 44.646 528.034 45.018 527.278C45.15 527.014 45.216 526.732 45.216 526.432C45.216 526.12 45.174 525.85 45.09 525.622C45.006 525.382 44.874 525.172 44.694 524.992C44.298 524.572 43.716 524.362 42.948 524.362H38.808V528.412ZM43.254 533.722C44.082 533.722 44.718 533.554 45.162 533.218C45.606 532.87 45.828 532.384 45.828 531.76C45.828 531.16 45.612 530.668 45.18 530.284C44.7 529.852 44.01 529.636 43.11 529.636H38.808V533.722H43.254ZM53.102 533.92C54.314 533.92 55.184 533.416 55.712 532.408H57.188C56.876 533.224 56.378 533.884 55.694 534.388C55.022 534.892 54.152 535.144 53.084 535.144C51.728 535.144 50.624 534.694 49.772 533.794C48.944 532.918 48.53 531.82 48.53 530.5C48.53 529.168 48.926 528.07 49.718 527.206C50.558 526.306 51.65 525.856 52.994 525.856C54.338 525.856 55.43 526.306 56.27 527.206C57.062 528.07 57.458 529.168 57.458 530.5V531.04H49.916C50.012 531.868 50.342 532.552 50.906 533.092C51.482 533.644 52.214 533.92 53.102 533.92ZM52.994 527.08C52.166 527.08 51.47 527.338 50.906 527.854C50.378 528.346 50.054 528.988 49.934 529.78H56.054C55.934 528.988 55.61 528.346 55.082 527.854C54.518 527.338 53.822 527.08 52.994 527.08ZM60.4575 526V527.404C60.7815 526.972 61.1775 526.606 61.6455 526.306C62.1135 526.006 62.6475 525.856 63.2475 525.856C63.8475 525.856 64.3635 525.94 64.7955 526.108C65.2275 526.276 65.6055 526.528 65.9295 526.864C66.6735 527.596 67.0455 528.562 67.0455 529.762V535H65.6955V529.798C65.6955 528.97 65.4615 528.31 64.9935 527.818C64.5255 527.326 63.9195 527.08 63.1755 527.08C62.4195 527.08 61.7775 527.332 61.2495 527.836C60.7215 528.352 60.4575 529.012 60.4575 529.816V535H59.1075V526H60.4575ZM73.4608 533.92C74.0368 533.92 74.5468 533.758 74.9908 533.434C75.4348 533.11 75.7588 532.69 75.9628 532.174H77.4208C77.1448 533.062 76.6408 533.776 75.9088 534.316C75.1408 534.868 74.2288 535.144 73.1728 535.144C71.8528 535.144 70.7788 534.694 69.9508 533.794C69.1468 532.918 68.7448 531.82 68.7448 530.5C68.7448 529.18 69.1468 528.082 69.9508 527.206C70.7788 526.306 71.8528 525.856 73.1728 525.856C74.2288 525.856 75.1408 526.132 75.9088 526.684C76.6408 527.224 77.1448 527.938 77.4208 528.826H75.9628C75.7588 528.31 75.4348 527.89 74.9908 527.566C74.5468 527.242 74.0368 527.08 73.4608 527.08C72.8848 527.08 72.3928 527.17 71.9848 527.35C71.5888 527.53 71.2528 527.776 70.9768 528.088C70.3888 528.736 70.0948 529.54 70.0948 530.5C70.0948 531.46 70.3888 532.264 70.9768 532.912C71.5768 533.584 72.4048 533.92 73.4608 533.92ZM80.4438 522.4V527.404C80.7678 526.972 81.1638 526.606 81.6318 526.306C82.0998 526.006 82.6338 525.856 83.2338 525.856C83.8338 525.856 84.3498 525.94 84.7818 526.108C85.2138 526.276 85.5918 526.528 85.9158 526.864C86.6598 527.596 87.0318 528.562 87.0318 529.762V535H85.6818V529.798C85.6818 528.97 85.4478 528.31 84.9798 527.818C84.5118 527.326 83.9058 527.08 83.1618 527.08C82.4058 527.08 81.7638 527.332 81.2358 527.836C80.7078 528.352 80.4438 529.012 80.4438 529.816V535H79.0938V522.4H80.4438ZM94.7592 535H93.4092V523.084H98.7732C100.033 523.084 101.035 523.432 101.779 524.128C102.511 524.824 102.877 525.754 102.877 526.918C102.877 528.094 102.505 529.03 101.761 529.726C101.029 530.41 100.033 530.752 98.7732 530.752H94.7592V535ZM94.7592 524.362V529.492H98.6832C99.6192 529.492 100.327 529.264 100.807 528.808C101.287 528.352 101.527 527.728 101.527 526.936C101.527 526.132 101.287 525.502 100.807 525.046C100.327 524.59 99.6192 524.362 98.6832 524.362H94.7592ZM109.176 525.856V527.206H109.014C108.042 527.206 107.25 527.596 106.638 528.376C106.062 529.12 105.774 530.008 105.774 531.04V535H104.424V526H105.774V528.214C106.062 527.278 106.686 526.588 107.646 526.144C108.042 525.952 108.522 525.856 109.086 525.856H109.176ZM114.414 533.92C115.626 533.92 116.496 533.416 117.024 532.408H118.5C118.188 533.224 117.69 533.884 117.006 534.388C116.334 534.892 115.464 535.144 114.396 535.144C113.04 535.144 111.936 534.694 111.084 533.794C110.256 532.918 109.842 531.82 109.842 530.5C109.842 529.168 110.238 528.07 111.03 527.206C111.87 526.306 112.962 525.856 114.306 525.856C115.65 525.856 116.742 526.306 117.582 527.206C118.374 528.07 118.77 529.168 118.77 530.5V531.04H111.228C111.324 531.868 111.654 532.552 112.218 533.092C112.794 533.644 113.526 533.92 114.414 533.92ZM114.306 527.08C113.478 527.08 112.782 527.338 112.218 527.854C111.69 528.346 111.366 528.988 111.246 529.78H117.366C117.246 528.988 116.922 528.346 116.394 527.854C115.83 527.338 115.134 527.08 114.306 527.08ZM125.712 528.412C125.592 527.476 124.836 527.008 123.444 527.008C122.064 527.008 121.374 527.44 121.374 528.304C121.374 528.664 121.518 528.94 121.806 529.132C122.106 529.312 122.478 529.462 122.922 529.582C123.366 529.702 123.846 529.816 124.362 529.924C124.89 530.02 125.376 530.164 125.82 530.356C126.264 530.536 126.63 530.788 126.918 531.112C127.218 531.436 127.368 531.88 127.368 532.444C127.368 533.32 127.038 533.992 126.378 534.46C125.718 534.916 124.824 535.144 123.696 535.144C122.496 535.144 121.542 534.844 120.834 534.244C120.186 533.716 119.838 533.026 119.79 532.174H121.194C121.278 533.002 121.746 533.56 122.598 533.848C122.91 533.944 123.216 533.992 123.516 533.992C123.828 533.992 124.116 533.974 124.38 533.938C124.644 533.902 124.902 533.836 125.154 533.74C125.73 533.512 126.018 533.122 126.018 532.57C126.018 532.198 125.868 531.916 125.568 531.724C125.28 531.52 124.914 531.358 124.47 531.238C124.026 531.106 123.54 530.992 123.012 530.896C122.496 530.788 122.016 530.644 121.572 530.464C121.128 530.284 120.756 530.038 120.456 529.726C120.168 529.414 120.024 528.982 120.024 528.43C120.024 527.614 120.318 526.984 120.906 526.54C121.506 526.084 122.388 525.856 123.552 525.856C124.656 525.856 125.526 526.12 126.162 526.648C126.69 527.092 126.996 527.68 127.08 528.412H125.712ZM134.396 528.412C134.276 527.476 133.52 527.008 132.128 527.008C130.748 527.008 130.058 527.44 130.058 528.304C130.058 528.664 130.202 528.94 130.49 529.132C130.79 529.312 131.162 529.462 131.606 529.582C132.05 529.702 132.53 529.816 133.046 529.924C133.574 530.02 134.06 530.164 134.504 530.356C134.948 530.536 135.314 530.788 135.602 531.112C135.902 531.436 136.052 531.88 136.052 532.444C136.052 533.32 135.722 533.992 135.062 534.46C134.402 534.916 133.508 535.144 132.38 535.144C131.18 535.144 130.226 534.844 129.518 534.244C128.87 533.716 128.522 533.026 128.474 532.174H129.878C129.962 533.002 130.43 533.56 131.282 533.848C131.594 533.944 131.9 533.992 132.2 533.992C132.512 533.992 132.8 533.974 133.064 533.938C133.328 533.902 133.586 533.836 133.838 533.74C134.414 533.512 134.702 533.122 134.702 532.57C134.702 532.198 134.552 531.916 134.252 531.724C133.964 531.52 133.598 531.358 133.154 531.238C132.71 531.106 132.224 530.992 131.696 530.896C131.18 530.788 130.7 530.644 130.256 530.464C129.812 530.284 129.44 530.038 129.14 529.726C128.852 529.414 128.708 528.982 128.708 528.43C128.708 527.614 129.002 526.984 129.59 526.54C130.19 526.084 131.072 525.856 132.236 525.856C133.34 525.856 134.21 526.12 134.846 526.648C135.374 527.092 135.68 527.68 135.764 528.412H134.396Z" fill="white"/>
<path d="M308.444 530.752V531.958H306.842V535H305.492V531.958H299.804V530.644L304.808 523.084H306.842V530.752H308.444ZM305.492 530.752V524.236L301.064 530.752H305.492ZM313.067 525.712L314.399 527.188L313.481 527.854L312.509 526.144L311.519 527.854L310.601 527.188L311.933 525.73L310.007 525.316L310.349 524.236L312.149 525.046L311.933 523.084H313.067L312.851 525.046L314.651 524.236L314.993 525.316L313.067 525.712ZM323.291 525.856C322.955 524.788 322.241 524.254 321.149 524.254C320.093 524.254 319.289 524.728 318.737 525.676C318.233 526.516 317.981 527.656 317.981 529.096C318.269 528.592 318.689 528.184 319.241 527.872C319.805 527.56 320.393 527.404 321.005 527.404C321.629 527.404 322.187 527.5 322.679 527.692C323.171 527.884 323.597 528.148 323.957 528.484C324.749 529.228 325.145 530.158 325.145 531.274C325.145 532.366 324.743 533.29 323.939 534.046C323.159 534.778 322.193 535.144 321.041 535.144C319.589 535.144 318.491 534.622 317.747 533.578C317.003 532.522 316.631 531.01 316.631 529.042C316.631 526.102 317.477 524.212 319.169 523.372C319.733 523.084 320.345 522.94 321.005 522.94C321.677 522.94 322.223 523.024 322.643 523.192C323.063 523.36 323.417 523.582 323.705 523.858C324.281 524.386 324.647 525.052 324.803 525.856H323.291ZM321.041 528.682C320.657 528.682 320.297 528.742 319.961 528.862C319.637 528.982 319.349 529.156 319.097 529.384C318.557 529.852 318.287 530.452 318.287 531.184C318.287 531.952 318.557 532.588 319.097 533.092C319.601 533.584 320.249 533.83 321.041 533.83C321.809 533.83 322.457 533.59 322.985 533.11C323.525 532.618 323.795 532.006 323.795 531.274C323.795 530.542 323.525 529.924 322.985 529.42C322.445 528.928 321.797 528.682 321.041 528.682Z" fill="white"/>
<path d="M227.354 530.752V531.958H225.752V535H224.402V531.958H218.714V530.644L223.718 523.084H225.752V530.752H227.354ZM224.402 530.752V524.236L219.974 530.752H224.402ZM230.969 527.836C231.581 527.464 232.235 527.278 232.931 527.278C233.627 527.278 234.221 527.374 234.713 527.566C235.205 527.758 235.625 528.028 235.973 528.376C236.717 529.096 237.089 530.032 237.089 531.184C237.089 532.288 236.705 533.224 235.937 533.992C235.169 534.76 234.221 535.144 233.093 535.144C231.725 535.144 230.657 534.772 229.889 534.028C229.325 533.488 228.965 532.816 228.809 532.012H230.195C230.471 532.828 231.035 533.38 231.887 533.668C232.211 533.776 232.583 533.83 233.003 533.83C233.435 533.83 233.813 533.764 234.137 533.632C234.473 533.488 234.761 533.296 235.001 533.056C235.493 532.54 235.739 531.916 235.739 531.184C235.739 530.404 235.493 529.768 235.001 529.276C234.509 528.784 233.867 528.538 233.075 528.538C232.535 528.538 232.055 528.64 231.635 528.844C231.227 529.036 230.921 529.252 230.717 529.492L229.475 528.736L230.285 523.084H236.495V524.38H231.509L230.969 527.836ZM244.301 535H242.951V522.4H244.301V535ZM247.993 527.458C248.725 526.39 249.799 525.856 251.215 525.856C252.511 525.856 253.561 526.306 254.365 527.206C255.169 528.094 255.571 529.192 255.571 530.5C255.571 531.808 255.169 532.906 254.365 533.794C253.561 534.694 252.475 535.144 251.107 535.144C249.751 535.144 248.713 534.616 247.993 533.56V535H246.643V522.4H247.993V527.458ZM251.035 533.92C251.995 533.92 252.775 533.584 253.375 532.912C253.939 532.276 254.221 531.472 254.221 530.5C254.221 529.528 253.939 528.724 253.375 528.088C252.775 527.416 251.995 527.08 251.035 527.08C250.063 527.08 249.295 527.416 248.731 528.088C248.191 528.724 247.921 529.528 247.921 530.5C247.921 531.472 248.191 532.276 248.731 532.912C249.295 533.584 250.063 533.92 251.035 533.92ZM262.622 528.412C262.502 527.476 261.746 527.008 260.354 527.008C258.974 527.008 258.284 527.44 258.284 528.304C258.284 528.664 258.428 528.94 258.716 529.132C259.016 529.312 259.388 529.462 259.832 529.582C260.276 529.702 260.756 529.816 261.272 529.924C261.8 530.02 262.286 530.164 262.73 530.356C263.174 530.536 263.54 530.788 263.828 531.112C264.128 531.436 264.278 531.88 264.278 532.444C264.278 533.32 263.948 533.992 263.288 534.46C262.628 534.916 261.734 535.144 260.606 535.144C259.406 535.144 258.452 534.844 257.744 534.244C257.096 533.716 256.748 533.026 256.7 532.174H258.104C258.188 533.002 258.656 533.56 259.508 533.848C259.82 533.944 260.126 533.992 260.426 533.992C260.738 533.992 261.026 533.974 261.29 533.938C261.554 533.902 261.812 533.836 262.064 533.74C262.64 533.512 262.928 533.122 262.928 532.57C262.928 532.198 262.778 531.916 262.478 531.724C262.19 531.52 261.824 531.358 261.38 531.238C260.936 531.106 260.45 530.992 259.922 530.896C259.406 530.788 258.926 530.644 258.482 530.464C258.038 530.284 257.666 530.038 257.366 529.726C257.078 529.414 256.934 528.982 256.934 528.43C256.934 527.614 257.228 526.984 257.816 526.54C258.416 526.084 259.298 525.856 260.462 525.856C261.566 525.856 262.436 526.12 263.072 526.648C263.6 527.092 263.906 527.68 263.99 528.412H262.622Z" fill="white"/>
<rect y="718" width="375" height="94" fill="#3E3E3E"/>
<g filter="url(#filter0_d)">
<line x1="123.5" y1="792.5" x2="250.5" y2="792.5" stroke="white" stroke-opacity="0.85" stroke-width="5" stroke-linecap="round" stroke-linejoin="round"/>
</g>
<path d="M201 754H189V766H185V754H173V750H185V738H189V750H201V754Z" fill="white"/>
<path d="M347.5 51.615L345.385 49.5L337 57.885L328.615 49.5L326.5 51.615L334.885 60L326.5 68.385L328.615 70.5L337 62.115L345.385 70.5L347.5 68.385L339.115 60L347.5 51.615Z" fill="white"/>
</g>
<defs>
<filter id="filter0_d" x="117" y="790" width="140" height="13" filterUnits="userSpaceOnUse" color-interpolation-filters="sRGB">
<feFlood flood-opacity="0" result="BackgroundImageFix"/>
<feColorMatrix in="SourceAlpha" type="matrix" values="0 0 0 0 0 0 0 0 0 0 0 0 0 0 0 0 0 0 127 0"/>
<feOffset dy="4"/>
<feGaussianBlur stdDeviation="2"/>
<feColorMatrix type="matrix" values="0 0 0 0 0 0 0 0 0 0 0 0 0 0 0 0 0 0 0.25 0"/>
<feBlend mode="normal" in2="BackgroundImageFix" result="effect1_dropShadow"/>
<feBlend mode="normal" in="SourceGraphic" in2="effect1_dropShadow" result="shape"/>
</filter>
<clipPath id="clip0">
<rect width="375" height="812" fill="white"/>
</clipPath>
</defs>
</svg>
