<svg width="375" height="812" viewBox="0 0 375 812" fill="none" xmlns="http://www.w3.org/2000/svg">
<rect width="375" height="812" fill="#181818"/>
<line x1="185.5" y1="229.5" x2="185.5" y2="104.5" stroke="#00FFA3" stroke-width="5" stroke-linecap="round"/>
<line x1="205.5" y1="229.5" x2="205.5" y2="228.5" stroke="#9D9D9D" stroke-width="5" stroke-linecap="round"/>
<line x1="225.5" y1="229.5" x2="225.5" y2="228.5" stroke="#9D9D9D" stroke-width="5" stroke-linecap="round"/>
<line x1="245.5" y1="229.5" x2="245.5" y2="228.5" stroke="#9D9D9D" stroke-width="5" stroke-linecap="round"/>
<line x1="265.5" y1="229.5" x2="265.5" y2="228.5" stroke="#9D9D9D" stroke-width="5" stroke-linecap="round"/>
<line x1="285.5" y1="229.5" x2="285.5" y2="228.5" stroke="#9D9D9D" stroke-width="5" stroke-linecap="round"/>
<line x1="305.5" y1="229.5" x2="305.5" y2="228.5" stroke="#9D9D9D" stroke-width="5" stroke-linecap="round"/>
<line x1="325.5" y1="229.5" x2="325.5" y2="228.5" stroke="#9D9D9D" stroke-width="5" stroke-linecap="round"/>
<line x1="165.5" y1="229.5" x2="165.5" y2="154.5" stroke="#00FFA3" stroke-width="5" stroke-linecap="round"/>
<line x1="145.5" y1="229.5" x2="145.5" y2="139.5" stroke="#00FFA3" stroke-width="5" stroke-linecap="round"/>
<line x1="125.5" y1="229.5" x2="125.5" y2="194.5" stroke="#00FFA3" stroke-width="5" stroke-linecap="round"/>
<line x1="105.5" y1="229.5" x2="105.5" y2="165.5" stroke="#00FFA3" stroke-width="5" stroke-linecap="round"/>
<line x1="85.5" y1="229.5" x2="85.5" y2="214.5" stroke="#00FFA3" stroke-width="5" stroke-linecap="round"/>
<line x1="65.5" y1="229.5" x2="65.5" y2="154.5" stroke="#00FFA3" stroke-width="5" stroke-linecap="round"/>
<line x1="45.5" y1="229.5" x2="45.5" y2="174.5" stroke="#00FFA3" stroke-width="5" stroke-linecap="round"/>
<path d="M163.863 68H161.871L159.927 63.392H152.055L150.111 68H148.119L154.863 52.112H157.119L163.863 68ZM159.231 61.736L155.991 53.984L152.751 61.736H159.231ZM170.831 66.56C171.599 66.56 172.279 66.344 172.871 65.912C173.463 65.48 173.895 64.92 174.167 64.232H176.111C175.743 65.416 175.071 66.368 174.095 67.088C173.071 67.824 171.855 68.192 170.447 68.192C168.687 68.192 167.255 67.592 166.151 66.392C165.079 65.224 164.543 63.76 164.543 62C164.543 60.24 165.079 58.776 166.151 57.608C167.255 56.408 168.687 55.808 170.447 55.808C171.855 55.808 173.071 56.176 174.095 56.912C175.071 57.632 175.743 58.584 176.111 59.768H174.167C173.895 59.08 173.463 58.52 172.871 58.088C172.279 57.656 171.599 57.44 170.831 57.44C170.063 57.44 169.407 57.56 168.863 57.8C168.335 58.04 167.887 58.368 167.519 58.784C166.735 59.648 166.343 60.72 166.343 62C166.343 63.28 166.735 64.352 167.519 65.216C168.319 66.112 169.423 66.56 170.831 66.56ZM179.637 68V57.584H177.189V56H179.637V51.704H181.437V56H184.197V57.584H181.437V68H179.637ZM186.169 56H187.969V68H186.169V56ZM188.041 51.632V53.984H186.097V51.632H188.041ZM201.147 56L196.467 68H194.355L189.651 56H191.619L195.411 66.08L199.179 56H201.147ZM202.833 56H204.633V68H202.833V56ZM204.705 51.632V53.984H202.761V51.632H204.705ZM209.051 68V57.584H206.603V56H209.051V51.704H210.851V56H213.611V57.584H210.851V68H209.051ZM218.775 72.752H216.831L219.015 67.832L214.119 56H216.111L219.975 65.84L223.911 56H225.879L218.775 72.752Z" fill="white"/>
<path d="M145.336 298.92C145.108 299.112 144.952 299.328 144.868 299.568C144.796 299.808 144.76 300.066 144.76 300.342C144.76 300.606 144.874 300.852 145.102 301.08C145.342 301.308 145.654 301.5 146.038 301.656C146.422 301.812 146.86 301.95 147.352 302.07C147.844 302.19 148.342 302.316 148.846 302.448C149.362 302.568 149.866 302.712 150.358 302.88C150.85 303.036 151.288 303.24 151.672 303.492C152.524 304.032 152.95 304.77 152.95 305.706C152.95 306.822 152.53 307.674 151.69 308.262C150.862 308.85 149.71 309.144 148.234 309.144C146.566 309.144 145.294 308.796 144.418 308.1C143.638 307.476 143.194 306.588 143.086 305.436H144.49C144.538 306.252 144.934 306.876 145.678 307.308C146.326 307.68 147.184 307.866 148.252 307.866C150.484 307.866 151.6 307.164 151.6 305.76C151.6 305.28 151.396 304.902 150.988 304.626C150.592 304.35 150.088 304.122 149.476 303.942C148.876 303.762 148.222 303.594 147.514 303.438C146.818 303.282 146.164 303.084 145.552 302.844C144.952 302.592 144.448 302.268 144.04 301.872C143.644 301.464 143.446 300.918 143.446 300.234C143.446 299.262 143.818 298.47 144.562 297.858C145.306 297.246 146.428 296.94 147.928 296.94C149.44 296.94 150.61 297.288 151.438 297.984C152.194 298.596 152.596 299.382 152.644 300.342H151.258C151.138 299.358 150.502 298.704 149.35 298.38C148.942 298.26 148.432 298.2 147.82 298.2C147.22 298.2 146.71 298.272 146.29 298.416C145.882 298.548 145.564 298.716 145.336 298.92ZM161.774 307.56C161.054 308.616 159.98 309.144 158.552 309.144C157.256 309.144 156.2 308.694 155.384 307.794C154.592 306.906 154.196 305.808 154.196 304.5C154.196 303.192 154.592 302.094 155.384 301.206C156.2 300.306 157.286 299.856 158.642 299.856C159.998 299.856 161.042 300.39 161.774 301.458V300H163.124V309H161.774V307.56ZM158.732 307.92C159.704 307.92 160.472 307.584 161.036 306.912C161.576 306.276 161.846 305.472 161.846 304.5C161.846 303.528 161.576 302.724 161.036 302.088C160.472 301.416 159.704 301.08 158.732 301.08C157.772 301.08 156.992 301.416 156.392 302.088C155.828 302.724 155.546 303.528 155.546 304.5C155.546 305.472 155.828 306.276 156.392 306.912C156.992 307.584 157.772 307.92 158.732 307.92ZM166.431 309V301.188H164.595V300H166.431V296.778H167.781V300H169.851V301.188H167.781V309H166.431ZM171.086 307.56H172.85L171.266 311.394H170.042L171.086 307.56ZM185.767 297.084V305.058C185.767 306.21 185.479 307.152 184.903 307.884C184.231 308.724 183.223 309.144 181.879 309.144C180.667 309.144 179.701 308.796 178.981 308.1C178.345 307.464 177.985 306.702 177.901 305.814H179.305C179.389 306.342 179.635 306.792 180.043 307.164C180.523 307.608 181.159 307.83 181.951 307.83C182.911 307.83 183.595 307.512 184.003 306.876C184.279 306.432 184.417 305.808 184.417 305.004V297.084H185.767ZM195.155 307.56C194.435 308.616 193.361 309.144 191.933 309.144C190.637 309.144 189.581 308.694 188.765 307.794C187.973 306.906 187.577 305.808 187.577 304.5C187.577 303.192 187.973 302.094 188.765 301.206C189.581 300.306 190.667 299.856 192.023 299.856C193.379 299.856 194.423 300.39 195.155 301.458V300H196.505V309H195.155V307.56ZM192.113 307.92C193.085 307.92 193.853 307.584 194.417 306.912C194.957 306.276 195.227 305.472 195.227 304.5C195.227 303.528 194.957 302.724 194.417 302.088C193.853 301.416 193.085 301.08 192.113 301.08C191.153 301.08 190.373 301.416 189.773 302.088C189.209 302.724 188.927 303.528 188.927 304.5C188.927 305.472 189.209 306.276 189.773 306.912C190.373 307.584 191.153 307.92 192.113 307.92ZM200.19 300V301.404C200.514 300.972 200.91 300.606 201.378 300.306C201.846 300.006 202.38 299.856 202.98 299.856C203.58 299.856 204.096 299.94 204.528 300.108C204.96 300.276 205.338 300.528 205.662 300.864C206.406 301.596 206.778 302.562 206.778 303.762V309H205.428V303.798C205.428 302.97 205.194 302.31 204.726 301.818C204.258 301.326 203.652 301.08 202.908 301.08C202.152 301.08 201.51 301.332 200.982 301.836C200.454 302.352 200.19 303.012 200.19 303.816V309H198.84V300H200.19ZM220.679 300.504C220.679 301.02 220.523 301.518 220.211 301.998C219.911 302.478 219.527 302.928 219.059 303.348C218.591 303.768 218.081 304.164 217.529 304.536C216.989 304.908 216.479 305.274 215.999 305.634C215.519 305.982 215.111 306.33 214.775 306.678C214.451 307.014 214.271 307.356 214.235 307.704H220.643V309H212.633V308.262C212.633 307.674 212.795 307.14 213.119 306.66C213.455 306.168 213.869 305.712 214.361 305.292C214.865 304.86 215.405 304.458 215.981 304.086C216.557 303.702 217.091 303.318 217.583 302.934C218.087 302.55 218.501 302.16 218.825 301.764C219.161 301.368 219.329 300.942 219.329 300.486C219.329 299.79 219.095 299.244 218.627 298.848C218.171 298.452 217.529 298.254 216.701 298.254C215.873 298.254 215.207 298.434 214.703 298.794C214.211 299.142 213.917 299.652 213.821 300.324H212.471C212.567 299.316 213.005 298.5 213.785 297.876C214.565 297.252 215.507 296.94 216.611 296.94C217.871 296.94 218.873 297.276 219.617 297.948C220.325 298.596 220.679 299.448 220.679 300.504ZM224.51 301.836C225.122 301.464 225.776 301.278 226.472 301.278C227.168 301.278 227.762 301.374 228.254 301.566C228.746 301.758 229.166 302.028 229.514 302.376C230.258 303.096 230.63 304.032 230.63 305.184C230.63 306.288 230.246 307.224 229.478 307.992C228.71 308.76 227.762 309.144 226.634 309.144C225.266 309.144 224.198 308.772 223.43 308.028C222.866 307.488 222.506 306.816 222.35 306.012H223.736C224.012 306.828 224.576 307.38 225.428 307.668C225.752 307.776 226.124 307.83 226.544 307.83C226.976 307.83 227.354 307.764 227.678 307.632C228.014 307.488 228.302 307.296 228.542 307.056C229.034 306.54 229.28 305.916 229.28 305.184C229.28 304.404 229.034 303.768 228.542 303.276C228.05 302.784 227.408 302.538 226.616 302.538C226.076 302.538 225.596 302.64 225.176 302.844C224.768 303.036 224.462 303.252 224.258 303.492L223.016 302.736L223.826 297.084H230.036V298.38H225.05L224.51 301.836Z" fill="#C4C4C4"/>
<path d="M152.468 269.672C152.468 270.36 152.26 271.024 151.844 271.664C151.444 272.304 150.932 272.904 150.308 273.464C149.684 274.024 149.004 274.552 148.268 275.048C147.548 275.544 146.868 276.032 146.228 276.512C145.588 276.976 145.044 277.44 144.596 277.904C144.164 278.352 143.924 278.808 143.876 279.272H152.42V281H141.74V280.016C141.74 279.232 141.956 278.52 142.388 277.88C142.836 277.224 143.388 276.616 144.044 276.056C144.716 275.48 145.436 274.944 146.204 274.448C146.972 273.936 147.684 273.424 148.34 272.912C149.012 272.4 149.564 271.88 149.996 271.352C150.444 270.824 150.668 270.256 150.668 269.648C150.668 268.72 150.356 267.992 149.732 267.464C149.124 266.936 148.268 266.672 147.164 266.672C146.06 266.672 145.172 266.912 144.5 267.392C143.844 267.856 143.452 268.536 143.324 269.432H141.524C141.652 268.088 142.236 267 143.276 266.168C144.316 265.336 145.572 264.92 147.044 264.92C148.724 264.92 150.06 265.368 151.052 266.264C151.996 267.128 152.468 268.264 152.468 269.672ZM165.952 275.336V276.944H163.816V281H162.016V276.944H154.432V275.192L161.104 265.112H163.816V275.336H165.952ZM162.016 275.336V266.648L156.112 275.336H162.016ZM179.027 265.112V267.152L172.403 281H170.315L177.179 266.84H168.011V265.112H179.027ZM183.678 278.552V281H181.35V278.552H183.678ZM197.097 265.112V267.152L190.473 281H188.385L195.249 266.84H186.081V265.112H197.097ZM210.362 279.56C211.13 279.56 211.81 279.344 212.402 278.912C212.994 278.48 213.426 277.92 213.698 277.232H215.642C215.274 278.416 214.602 279.368 213.626 280.088C212.602 280.824 211.386 281.192 209.978 281.192C208.218 281.192 206.786 280.592 205.682 279.392C204.61 278.224 204.074 276.76 204.074 275C204.074 273.24 204.61 271.776 205.682 270.608C206.786 269.408 208.218 268.808 209.978 268.808C211.386 268.808 212.602 269.176 213.626 269.912C214.602 270.632 215.274 271.584 215.642 272.768H213.698C213.426 272.08 212.994 271.52 212.402 271.088C211.81 270.656 211.13 270.44 210.362 270.44C209.594 270.44 208.938 270.56 208.394 270.8C207.866 271.04 207.418 271.368 207.05 271.784C206.266 272.648 205.874 273.72 205.874 275C205.874 276.28 206.266 277.352 207.05 278.216C207.85 279.112 208.954 279.56 210.362 279.56ZM227.233 279.08C226.273 280.488 224.841 281.192 222.937 281.192C221.209 281.192 219.801 280.592 218.713 279.392C217.657 278.208 217.129 276.744 217.129 275C217.129 273.256 217.657 271.792 218.713 270.608C219.801 269.408 221.249 268.808 223.057 268.808C224.865 268.808 226.257 269.52 227.233 270.944V269H229.033V281H227.233V279.08ZM223.177 279.56C224.473 279.56 225.497 279.112 226.249 278.216C226.969 277.368 227.329 276.296 227.329 275C227.329 273.704 226.969 272.632 226.249 271.784C225.497 270.888 224.473 270.44 223.177 270.44C221.897 270.44 220.857 270.888 220.057 271.784C219.305 272.632 218.929 273.704 218.929 275C218.929 276.296 219.305 277.368 220.057 278.216C220.857 279.112 221.897 279.56 223.177 279.56ZM233.946 281H232.146V264.2H233.946V281Z" fill="white"/>
<path d="M0 370C0 352.327 14.3269 338 32 338H343C360.673 338 375 352.327 375 370V718H0V370Z" fill="#424242"/>
<path d="M46.566 532.234C46.566 533.542 46.032 534.436 44.964 534.916C45.948 535.24 46.62 535.834 46.98 536.698C47.112 537.034 47.178 537.424 47.178 537.868C47.178 539.308 46.416 540.268 44.892 540.748C44.388 540.916 43.794 541 43.11 541H37.458V529.084H42.804C44.088 529.084 45.066 529.432 45.738 530.128C46.29 530.68 46.566 531.382 46.566 532.234ZM38.808 534.412H42.804C43.908 534.412 44.646 534.034 45.018 533.278C45.15 533.014 45.216 532.732 45.216 532.432C45.216 532.12 45.174 531.85 45.09 531.622C45.006 531.382 44.874 531.172 44.694 530.992C44.298 530.572 43.716 530.362 42.948 530.362H38.808V534.412ZM43.254 539.722C44.082 539.722 44.718 539.554 45.162 539.218C45.606 538.87 45.828 538.384 45.828 537.76C45.828 537.16 45.612 536.668 45.18 536.284C44.7 535.852 44.01 535.636 43.11 535.636H38.808V539.722H43.254ZM53.102 539.92C54.314 539.92 55.184 539.416 55.712 538.408H57.188C56.876 539.224 56.378 539.884 55.694 540.388C55.022 540.892 54.152 541.144 53.084 541.144C51.728 541.144 50.624 540.694 49.772 539.794C48.944 538.918 48.53 537.82 48.53 536.5C48.53 535.168 48.926 534.07 49.718 533.206C50.558 532.306 51.65 531.856 52.994 531.856C54.338 531.856 55.43 532.306 56.27 533.206C57.062 534.07 57.458 535.168 57.458 536.5V537.04H49.916C50.012 537.868 50.342 538.552 50.906 539.092C51.482 539.644 52.214 539.92 53.102 539.92ZM52.994 533.08C52.166 533.08 51.47 533.338 50.906 533.854C50.378 534.346 50.054 534.988 49.934 535.78H56.054C55.934 534.988 55.61 534.346 55.082 533.854C54.518 533.338 53.822 533.08 52.994 533.08ZM60.4575 532V533.404C60.7815 532.972 61.1775 532.606 61.6455 532.306C62.1135 532.006 62.6475 531.856 63.2475 531.856C63.8475 531.856 64.3635 531.94 64.7955 532.108C65.2275 532.276 65.6055 532.528 65.9295 532.864C66.6735 533.596 67.0455 534.562 67.0455 535.762V541H65.6955V535.798C65.6955 534.97 65.4615 534.31 64.9935 533.818C64.5255 533.326 63.9195 533.08 63.1755 533.08C62.4195 533.08 61.7775 533.332 61.2495 533.836C60.7215 534.352 60.4575 535.012 60.4575 535.816V541H59.1075V532H60.4575ZM73.4608 539.92C74.0368 539.92 74.5468 539.758 74.9908 539.434C75.4348 539.11 75.7588 538.69 75.9628 538.174H77.4208C77.1448 539.062 76.6408 539.776 75.9088 540.316C75.1408 540.868 74.2288 541.144 73.1728 541.144C71.8528 541.144 70.7788 540.694 69.9508 539.794C69.1468 538.918 68.7448 537.82 68.7448 536.5C68.7448 535.18 69.1468 534.082 69.9508 533.206C70.7788 532.306 71.8528 531.856 73.1728 531.856C74.2288 531.856 75.1408 532.132 75.9088 532.684C76.6408 533.224 77.1448 533.938 77.4208 534.826H75.9628C75.7588 534.31 75.4348 533.89 74.9908 533.566C74.5468 533.242 74.0368 533.08 73.4608 533.08C72.8848 533.08 72.3928 533.17 71.9848 533.35C71.5888 533.53 71.2528 533.776 70.9768 534.088C70.3888 534.736 70.0948 535.54 70.0948 536.5C70.0948 537.46 70.3888 538.264 70.9768 538.912C71.5768 539.584 72.4048 539.92 73.4608 539.92ZM80.4438 528.4V533.404C80.7678 532.972 81.1638 532.606 81.6318 532.306C82.0998 532.006 82.6338 531.856 83.2338 531.856C83.8338 531.856 84.3498 531.94 84.7818 532.108C85.2138 532.276 85.5918 532.528 85.9158 532.864C86.6598 533.596 87.0318 534.562 87.0318 535.762V541H85.6818V535.798C85.6818 534.97 85.4478 534.31 84.9798 533.818C84.5118 533.326 83.9058 533.08 83.1618 533.08C82.4058 533.08 81.7638 533.332 81.2358 533.836C80.7078 534.352 80.4438 535.012 80.4438 535.816V541H79.0938V528.4H80.4438ZM94.7592 541H93.4092V529.084H98.7732C100.033 529.084 101.035 529.432 101.779 530.128C102.511 530.824 102.877 531.754 102.877 532.918C102.877 534.094 102.505 535.03 101.761 535.726C101.029 536.41 100.033 536.752 98.7732 536.752H94.7592V541ZM94.7592 530.362V535.492H98.6832C99.6192 535.492 100.327 535.264 100.807 534.808C101.287 534.352 101.527 533.728 101.527 532.936C101.527 532.132 101.287 531.502 100.807 531.046C100.327 530.59 99.6192 530.362 98.6832 530.362H94.7592ZM109.176 531.856V533.206H109.014C108.042 533.206 107.25 533.596 106.638 534.376C106.062 535.12 105.774 536.008 105.774 537.04V541H104.424V532H105.774V534.214C106.062 533.278 106.686 532.588 107.646 532.144C108.042 531.952 108.522 531.856 109.086 531.856H109.176ZM114.414 539.92C115.626 539.92 116.496 539.416 117.024 538.408H118.5C118.188 539.224 117.69 539.884 117.006 540.388C116.334 540.892 115.464 541.144 114.396 541.144C113.04 541.144 111.936 540.694 111.084 539.794C110.256 538.918 109.842 537.82 109.842 536.5C109.842 535.168 110.238 534.07 111.03 533.206C111.87 532.306 112.962 531.856 114.306 531.856C115.65 531.856 116.742 532.306 117.582 533.206C118.374 534.07 118.77 535.168 118.77 536.5V537.04H111.228C111.324 537.868 111.654 538.552 112.218 539.092C112.794 539.644 113.526 539.92 114.414 539.92ZM114.306 533.08C113.478 533.08 112.782 533.338 112.218 533.854C111.69 534.346 111.366 534.988 111.246 535.78H117.366C117.246 534.988 116.922 534.346 116.394 533.854C115.83 533.338 115.134 533.08 114.306 533.08ZM125.712 534.412C125.592 533.476 124.836 533.008 123.444 533.008C122.064 533.008 121.374 533.44 121.374 534.304C121.374 534.664 121.518 534.94 121.806 535.132C122.106 535.312 122.478 535.462 122.922 535.582C123.366 535.702 123.846 535.816 124.362 535.924C124.89 536.02 125.376 536.164 125.82 536.356C126.264 536.536 126.63 536.788 126.918 537.112C127.218 537.436 127.368 537.88 127.368 538.444C127.368 539.32 127.038 539.992 126.378 540.46C125.718 540.916 124.824 541.144 123.696 541.144C122.496 541.144 121.542 540.844 120.834 540.244C120.186 539.716 119.838 539.026 119.79 538.174H121.194C121.278 539.002 121.746 539.56 122.598 539.848C122.91 539.944 123.216 539.992 123.516 539.992C123.828 539.992 124.116 539.974 124.38 539.938C124.644 539.902 124.902 539.836 125.154 539.74C125.73 539.512 126.018 539.122 126.018 538.57C126.018 538.198 125.868 537.916 125.568 537.724C125.28 537.52 124.914 537.358 124.47 537.238C124.026 537.106 123.54 536.992 123.012 536.896C122.496 536.788 122.016 536.644 121.572 536.464C121.128 536.284 120.756 536.038 120.456 535.726C120.168 535.414 120.024 534.982 120.024 534.43C120.024 533.614 120.318 532.984 120.906 532.54C121.506 532.084 122.388 531.856 123.552 531.856C124.656 531.856 125.526 532.12 126.162 532.648C126.69 533.092 126.996 533.68 127.08 534.412H125.712ZM134.396 534.412C134.276 533.476 133.52 533.008 132.128 533.008C130.748 533.008 130.058 533.44 130.058 534.304C130.058 534.664 130.202 534.94 130.49 535.132C130.79 535.312 131.162 535.462 131.606 535.582C132.05 535.702 132.53 535.816 133.046 535.924C133.574 536.02 134.06 536.164 134.504 536.356C134.948 536.536 135.314 536.788 135.602 537.112C135.902 537.436 136.052 537.88 136.052 538.444C136.052 539.32 135.722 539.992 135.062 540.46C134.402 540.916 133.508 541.144 132.38 541.144C131.18 541.144 130.226 540.844 129.518 540.244C128.87 539.716 128.522 539.026 128.474 538.174H129.878C129.962 539.002 130.43 539.56 131.282 539.848C131.594 539.944 131.9 539.992 132.2 539.992C132.512 539.992 132.8 539.974 133.064 539.938C133.328 539.902 133.586 539.836 133.838 539.74C134.414 539.512 134.702 539.122 134.702 538.57C134.702 538.198 134.552 537.916 134.252 537.724C133.964 537.52 133.598 537.358 133.154 537.238C132.71 537.106 132.224 536.992 131.696 536.896C131.18 536.788 130.7 536.644 130.256 536.464C129.812 536.284 129.44 536.038 129.14 535.726C128.852 535.414 128.708 534.982 128.708 534.43C128.708 533.614 129.002 532.984 129.59 532.54C130.19 532.084 131.072 531.856 132.236 531.856C133.34 531.856 134.21 532.12 134.846 532.648C135.374 533.092 135.68 533.68 135.764 534.412H134.396Z" fill="white"/>
<path d="M311.586 532.504C311.586 533.02 311.43 533.518 311.118 533.998C310.818 534.478 310.434 534.928 309.966 535.348C309.498 535.768 308.988 536.164 308.436 536.536C307.896 536.908 307.386 537.274 306.906 537.634C306.426 537.982 306.018 538.33 305.682 538.678C305.358 539.014 305.178 539.356 305.142 539.704H311.55V541H303.54V540.262C303.54 539.674 303.702 539.14 304.026 538.66C304.362 538.168 304.776 537.712 305.268 537.292C305.772 536.86 306.312 536.458 306.888 536.086C307.464 535.702 307.998 535.318 308.49 534.934C308.994 534.55 309.408 534.16 309.732 533.764C310.068 533.368 310.236 532.942 310.236 532.486C310.236 531.79 310.002 531.244 309.534 530.848C309.078 530.452 308.436 530.254 307.608 530.254C306.78 530.254 306.114 530.434 305.61 530.794C305.118 531.142 304.824 531.652 304.728 532.324H303.378C303.474 531.316 303.912 530.5 304.692 529.876C305.472 529.252 306.414 528.94 307.518 528.94C308.778 528.94 309.78 529.276 310.524 529.948C311.232 530.596 311.586 531.448 311.586 532.504ZM321.698 536.752V537.958H320.096V541H318.746V537.958H313.058V536.644L318.062 529.084H320.096V536.752H321.698ZM318.746 536.752V530.236L314.318 536.752H318.746Z" fill="white"/>
<path d="M211.446 529.084V541H210.096V530.38H207.576V529.084H211.446ZM224.24 536.752V537.958H222.638V541H221.288V537.958H215.6V536.644L220.604 529.084H222.638V536.752H224.24ZM221.288 536.752V530.236L216.86 536.752H221.288ZM231.868 534.448C232.576 534.724 233.134 535.144 233.542 535.708C233.95 536.272 234.154 536.86 234.154 537.472C234.154 538.072 234.058 538.594 233.866 539.038C233.674 539.47 233.398 539.842 233.038 540.154C232.282 540.814 231.232 541.144 229.888 541.144C228.544 541.144 227.494 540.814 226.738 540.154C225.994 539.506 225.622 538.648 225.622 537.58C225.622 536.896 225.826 536.272 226.234 535.708C226.642 535.144 227.2 534.724 227.908 534.448C227.452 534.28 227.05 534.004 226.702 533.62C226.294 533.152 226.09 532.594 226.09 531.946C226.09 531.046 226.414 530.32 227.062 529.768C227.71 529.216 228.652 528.94 229.888 528.94C231.124 528.94 232.066 529.216 232.714 529.768C233.362 530.32 233.686 531.046 233.686 531.946C233.686 532.894 233.284 533.62 232.48 534.124C232.264 534.268 232.06 534.376 231.868 534.448ZM229.888 533.872C230.524 533.872 231.07 533.728 231.526 533.44C232.066 533.092 232.336 532.624 232.336 532.036C232.336 531.448 232.108 531.004 231.652 530.704C231.196 530.392 230.608 530.236 229.888 530.236C229.168 530.236 228.58 530.392 228.124 530.704C227.668 531.004 227.44 531.448 227.44 532.036C227.44 532.624 227.686 533.08 228.178 533.404C228.682 533.716 229.252 533.872 229.888 533.872ZM229.888 539.848C230.788 539.848 231.496 539.644 232.012 539.236C232.54 538.828 232.804 538.27 232.804 537.562C232.804 536.818 232.516 536.212 231.94 535.744C231.4 535.324 230.716 535.114 229.888 535.114C229.06 535.114 228.376 535.324 227.836 535.744C227.26 536.212 226.972 536.812 226.972 537.544C226.972 538.264 227.23 538.828 227.746 539.236C228.274 539.644 228.988 539.848 229.888 539.848ZM243.995 539.92C244.571 539.92 245.081 539.758 245.525 539.434C245.969 539.11 246.293 538.69 246.497 538.174H247.955C247.679 539.062 247.175 539.776 246.443 540.316C245.675 540.868 244.763 541.144 243.707 541.144C242.387 541.144 241.313 540.694 240.485 539.794C239.681 538.918 239.279 537.82 239.279 536.5C239.279 535.18 239.681 534.082 240.485 533.206C241.313 532.306 242.387 531.856 243.707 531.856C244.763 531.856 245.675 532.132 246.443 532.684C247.175 533.224 247.679 533.938 247.955 534.826H246.497C246.293 534.31 245.969 533.89 245.525 533.566C245.081 533.242 244.571 533.08 243.995 533.08C243.419 533.08 242.927 533.17 242.519 533.35C242.123 533.53 241.787 533.776 241.511 534.088C240.923 534.736 240.629 535.54 240.629 536.5C240.629 537.46 240.923 538.264 241.511 538.912C242.111 539.584 242.939 539.92 243.995 539.92ZM256.648 539.56C255.928 540.616 254.854 541.144 253.426 541.144C252.13 541.144 251.074 540.694 250.258 539.794C249.466 538.906 249.07 537.808 249.07 536.5C249.07 535.192 249.466 534.094 250.258 533.206C251.074 532.306 252.16 531.856 253.516 531.856C254.872 531.856 255.916 532.39 256.648 533.458V532H257.998V541H256.648V539.56ZM253.606 539.92C254.578 539.92 255.346 539.584 255.91 538.912C256.45 538.276 256.72 537.472 256.72 536.5C256.72 535.528 256.45 534.724 255.91 534.088C255.346 533.416 254.578 533.08 253.606 533.08C252.646 533.08 251.866 533.416 251.266 534.088C250.702 534.724 250.42 535.528 250.42 536.5C250.42 537.472 250.702 538.276 251.266 538.912C251.866 539.584 252.646 539.92 253.606 539.92ZM261.683 541H260.333V528.4H261.683V541Z" fill="white"/>
<path d="M41.115 66.885L34.245 60L41.115 53.115L39 51L30 60L39 69L41.115 66.885Z" fill="white"/>
<path d="M49.224 374.84H43.68V389H41.88V374.84H36.336V373.112H49.224V374.84ZM55.8257 376.808V378.608H55.6097C54.3137 378.608 53.2577 379.128 52.4417 380.168C51.6737 381.16 51.2897 382.344 51.2897 383.72V389H49.4897V377H51.2897V379.952C51.6737 378.704 52.5057 377.784 53.7857 377.192C54.3137 376.936 54.9537 376.808 55.7057 376.808H55.8257ZM62.8104 387.56C64.4264 387.56 65.5864 386.888 66.2904 385.544H68.2584C67.8424 386.632 67.1784 387.512 66.2664 388.184C65.3704 388.856 64.2104 389.192 62.7864 389.192C60.9784 389.192 59.5064 388.592 58.3704 387.392C57.2664 386.224 56.7144 384.76 56.7144 383C56.7144 381.224 57.2424 379.76 58.2984 378.608C59.4184 377.408 60.8744 376.808 62.6664 376.808C64.4584 376.808 65.9144 377.408 67.0344 378.608C68.0904 379.76 68.6184 381.224 68.6184 383V383.72H58.5624C58.6904 384.824 59.1304 385.736 59.8824 386.456C60.6504 387.192 61.6264 387.56 62.8104 387.56ZM62.6664 378.44C61.5624 378.44 60.6344 378.784 59.8824 379.472C59.1784 380.128 58.7464 380.984 58.5864 382.04H66.7464C66.5864 380.984 66.1544 380.128 65.4504 379.472C64.6984 378.784 63.7704 378.44 62.6664 378.44ZM72.6178 377V378.872C73.0498 378.296 73.5778 377.808 74.2018 377.408C74.8258 377.008 75.5378 376.808 76.3378 376.808C77.1378 376.808 77.8258 376.92 78.4018 377.144C78.9778 377.368 79.4818 377.704 79.9138 378.152C80.9058 379.128 81.4018 380.416 81.4018 382.016V389H79.6018V382.064C79.6018 380.96 79.2898 380.08 78.6658 379.424C78.0418 378.768 77.2338 378.44 76.2418 378.44C75.2338 378.44 74.3778 378.776 73.6738 379.448C72.9698 380.136 72.6178 381.016 72.6178 382.088V389H70.8178V377H72.6178ZM93.7716 387.08C92.8116 388.488 91.3796 389.192 89.4756 389.192C87.7476 389.192 86.3396 388.592 85.2516 387.392C84.1956 386.208 83.6676 384.744 83.6676 383C83.6676 381.256 84.1956 379.792 85.2516 378.608C86.3396 377.408 87.7876 376.808 89.5956 376.808C91.4036 376.808 92.7956 377.52 93.7716 378.944V372.2H95.5716V389H93.7716V387.08ZM89.7156 387.56C91.0116 387.56 92.0356 387.112 92.7876 386.216C93.5076 385.368 93.8676 384.296 93.8676 383C93.8676 381.704 93.5076 380.632 92.7876 379.784C92.0356 378.888 91.0116 378.44 89.7156 378.44C88.4356 378.44 87.3956 378.888 86.5956 379.784C85.8436 380.632 85.4676 381.704 85.4676 383C85.4676 384.296 85.8436 385.368 86.5956 386.216C87.3956 387.112 88.4356 387.56 89.7156 387.56ZM105.741 380.216C105.581 378.968 104.573 378.344 102.717 378.344C100.877 378.344 99.957 378.92 99.957 380.072C99.957 380.552 100.149 380.92 100.533 381.176C100.933 381.416 101.429 381.616 102.021 381.776C102.613 381.936 103.253 382.088 103.941 382.232C104.645 382.36 105.293 382.552 105.885 382.808C106.477 383.048 106.965 383.384 107.349 383.816C107.749 384.248 107.949 384.84 107.949 385.592C107.949 386.76 107.509 387.656 106.629 388.28C105.749 388.888 104.557 389.192 103.053 389.192C101.453 389.192 100.181 388.792 99.237 387.992C98.373 387.288 97.909 386.368 97.845 385.232H99.717C99.829 386.336 100.453 387.08 101.589 387.464C102.005 387.592 102.413 387.656 102.813 387.656C103.229 387.656 103.613 387.632 103.965 387.584C104.317 387.536 104.661 387.448 104.997 387.32C105.765 387.016 106.149 386.496 106.149 385.76C106.149 385.264 105.949 384.888 105.549 384.632C105.165 384.36 104.677 384.144 104.085 383.984C103.493 383.808 102.845 383.656 102.141 383.528C101.453 383.384 100.813 383.192 100.221 382.952C99.629 382.712 99.133 382.384 98.733 381.968C98.349 381.552 98.157 380.976 98.157 380.24C98.157 379.152 98.549 378.312 99.333 377.72C100.133 377.112 101.309 376.808 102.861 376.808C104.333 376.808 105.493 377.16 106.341 377.864C107.045 378.456 107.453 379.24 107.565 380.216H105.741Z" fill="white"/>
<path d="M42.264 433.872L47.628 441H45.936L41.274 434.79L38.808 437.094V441H37.458V429.084H38.808V435.294L45.432 429.084H47.34L42.264 433.872ZM51.9067 439.92C53.1187 439.92 53.9887 439.416 54.5167 438.408H55.9927C55.6807 439.224 55.1827 439.884 54.4987 440.388C53.8267 440.892 52.9567 441.144 51.8887 441.144C50.5327 441.144 49.4287 440.694 48.5767 439.794C47.7487 438.918 47.3347 437.82 47.3347 436.5C47.3347 435.168 47.7307 434.07 48.5227 433.206C49.3627 432.306 50.4547 431.856 51.7987 431.856C53.1427 431.856 54.2347 432.306 55.0747 433.206C55.8667 434.07 56.2627 435.168 56.2627 436.5V437.04H48.7207C48.8167 437.868 49.1467 438.552 49.7107 439.092C50.2867 439.644 51.0187 439.92 51.9067 439.92ZM51.7987 433.08C50.9707 433.08 50.2747 433.338 49.7107 433.854C49.1827 434.346 48.8587 434.988 48.7387 435.78H54.8587C54.7387 434.988 54.4147 434.346 53.8867 433.854C53.3227 433.338 52.6267 433.08 51.7987 433.08ZM58.7787 441V433.188H56.9427V432H58.7787V428.778H60.1287V432H62.1987V433.188H60.1287V441H58.7787ZM64.6498 441V433.188H62.8138V432H64.6498V428.778H65.9998V432H68.0698V433.188H65.9998V441H64.6498ZM70.8989 441H69.5489V428.4H70.8989V441ZM77.2543 439.92C78.4663 439.92 79.3363 439.416 79.8643 438.408H81.3403C81.0283 439.224 80.5303 439.884 79.8463 440.388C79.1743 440.892 78.3043 441.144 77.2363 441.144C75.8803 441.144 74.7763 440.694 73.9243 439.794C73.0963 438.918 72.6823 437.82 72.6823 436.5C72.6823 435.168 73.0783 434.07 73.8703 433.206C74.7103 432.306 75.8023 431.856 77.1463 431.856C78.4903 431.856 79.5823 432.306 80.4223 433.206C81.2143 434.07 81.6103 435.168 81.6103 436.5V437.04H74.0683C74.1643 437.868 74.4943 438.552 75.0583 439.092C75.6343 439.644 76.3663 439.92 77.2543 439.92ZM77.1463 433.08C76.3183 433.08 75.6223 433.338 75.0583 433.854C74.5303 434.346 74.2063 434.988 74.0863 435.78H80.2063C80.0863 434.988 79.7623 434.346 79.2343 433.854C78.6703 433.338 77.9743 433.08 77.1463 433.08ZM96.4879 432.234C96.4879 433.542 95.9539 434.436 94.8859 434.916C95.8699 435.24 96.5419 435.834 96.9019 436.698C97.0339 437.034 97.0999 437.424 97.0999 437.868C97.0999 439.308 96.3379 440.268 94.8139 440.748C94.3099 440.916 93.7159 441 93.0319 441H87.3799V429.084H92.7259C94.0099 429.084 94.9879 429.432 95.6599 430.128C96.2119 430.68 96.4879 431.382 96.4879 432.234ZM88.7299 434.412H92.7259C93.8299 434.412 94.5679 434.034 94.9399 433.278C95.0719 433.014 95.1379 432.732 95.1379 432.432C95.1379 432.12 95.0959 431.85 95.0119 431.622C94.9279 431.382 94.7959 431.172 94.6159 430.992C94.2199 430.572 93.6379 430.362 92.8699 430.362H88.7299V434.412ZM93.1759 439.722C94.0039 439.722 94.6399 439.554 95.0839 439.218C95.5279 438.87 95.7499 438.384 95.7499 437.76C95.7499 437.16 95.5339 436.668 95.1019 436.284C94.6219 435.852 93.9319 435.636 93.0319 435.636H88.7299V439.722H93.1759ZM103.024 439.92C104.236 439.92 105.106 439.416 105.634 438.408H107.11C106.798 439.224 106.3 439.884 105.616 440.388C104.944 440.892 104.074 441.144 103.006 441.144C101.65 441.144 100.546 440.694 99.6938 439.794C98.8658 438.918 98.4518 437.82 98.4518 436.5C98.4518 435.168 98.8478 434.07 99.6398 433.206C100.48 432.306 101.572 431.856 102.916 431.856C104.26 431.856 105.352 432.306 106.192 433.206C106.984 434.07 107.38 435.168 107.38 436.5V437.04H99.8378C99.9338 437.868 100.264 438.552 100.828 439.092C101.404 439.644 102.136 439.92 103.024 439.92ZM102.916 433.08C102.088 433.08 101.392 433.338 100.828 433.854C100.3 434.346 99.9758 434.988 99.8558 435.78H105.976C105.856 434.988 105.532 434.346 105.004 433.854C104.44 433.338 103.744 433.08 102.916 433.08ZM110.379 441H109.029V428.4H110.379V441ZM114.071 441H112.721V428.4H114.071V441ZM121.9 430.92C121.672 431.112 121.516 431.328 121.432 431.568C121.36 431.808 121.324 432.066 121.324 432.342C121.324 432.606 121.438 432.852 121.666 433.08C121.906 433.308 122.218 433.5 122.602 433.656C122.986 433.812 123.424 433.95 123.916 434.07C124.408 434.19 124.906 434.316 125.41 434.448C125.926 434.568 126.43 434.712 126.922 434.88C127.414 435.036 127.852 435.24 128.236 435.492C129.088 436.032 129.514 436.77 129.514 437.706C129.514 438.822 129.094 439.674 128.254 440.262C127.426 440.85 126.274 441.144 124.798 441.144C123.13 441.144 121.858 440.796 120.982 440.1C120.202 439.476 119.758 438.588 119.65 437.436H121.054C121.102 438.252 121.498 438.876 122.242 439.308C122.89 439.68 123.748 439.866 124.816 439.866C127.048 439.866 128.164 439.164 128.164 437.76C128.164 437.28 127.96 436.902 127.552 436.626C127.156 436.35 126.652 436.122 126.04 435.942C125.44 435.762 124.786 435.594 124.078 435.438C123.382 435.282 122.728 435.084 122.116 434.844C121.516 434.592 121.012 434.268 120.604 433.872C120.208 433.464 120.01 432.918 120.01 432.234C120.01 431.262 120.382 430.47 121.126 429.858C121.87 429.246 122.992 428.94 124.492 428.94C126.004 428.94 127.174 429.288 128.002 429.984C128.758 430.596 129.16 431.382 129.208 432.342H127.822C127.702 431.358 127.066 430.704 125.914 430.38C125.506 430.26 124.996 430.2 124.384 430.2C123.784 430.2 123.274 430.272 122.854 430.416C122.446 430.548 122.128 430.716 121.9 430.92ZM136.934 433.818L134.684 441H133.136L130.31 432H131.75L133.91 439.326L136.196 432H137.672L139.958 439.326L142.118 432H143.558L140.732 441H139.184L136.934 433.818ZM144.889 432H146.239V441H144.889V432ZM146.293 428.724V430.488H144.835V428.724H146.293ZM149.93 432V433.404C150.254 432.972 150.65 432.606 151.118 432.306C151.586 432.006 152.12 431.856 152.72 431.856C153.32 431.856 153.836 431.94 154.268 432.108C154.7 432.276 155.078 432.528 155.402 432.864C156.146 433.596 156.518 434.562 156.518 435.762V441H155.168V435.798C155.168 434.97 154.934 434.31 154.466 433.818C153.998 433.326 153.392 433.08 152.648 433.08C151.892 433.08 151.25 433.332 150.722 433.836C150.194 434.352 149.93 435.012 149.93 435.816V441H148.58V432H149.93ZM165.795 433.44V432H167.145V440.73C167.145 442.026 166.773 443.01 166.029 443.682C165.297 444.366 164.307 444.708 163.059 444.708C161.811 444.708 160.833 444.468 160.125 443.988C159.429 443.508 158.955 442.872 158.703 442.08H160.197C160.581 443.016 161.457 443.484 162.825 443.484C163.869 443.484 164.625 443.244 165.093 442.764C165.561 442.284 165.795 441.576 165.795 440.64V439.398C165.063 440.466 163.989 441 162.573 441C161.277 441 160.221 440.556 159.405 439.668C158.613 438.804 158.217 437.724 158.217 436.428C158.217 435.132 158.613 434.052 159.405 433.188C160.221 432.3 161.307 431.856 162.663 431.856C164.031 431.856 165.075 432.384 165.795 433.44ZM162.753 439.776C163.245 439.776 163.683 439.692 164.067 439.524C164.451 439.344 164.781 439.104 165.057 438.804C165.597 438.18 165.867 437.388 165.867 436.428C165.867 435.468 165.597 434.676 165.057 434.052C164.469 433.404 163.701 433.08 162.753 433.08C161.781 433.08 161.001 433.404 160.413 434.052C159.849 434.688 159.567 435.48 159.567 436.428C159.567 437.376 159.849 438.168 160.413 438.804C161.001 439.452 161.781 439.776 162.753 439.776Z" fill="white"/>
<path d="M311.586 432.504C311.586 433.02 311.43 433.518 311.118 433.998C310.818 434.478 310.434 434.928 309.966 435.348C309.498 435.768 308.988 436.164 308.436 436.536C307.896 436.908 307.386 437.274 306.906 437.634C306.426 437.982 306.018 438.33 305.682 438.678C305.358 439.014 305.178 439.356 305.142 439.704H311.55V441H303.54V440.262C303.54 439.674 303.702 439.14 304.026 438.66C304.362 438.168 304.776 437.712 305.268 437.292C305.772 436.86 306.312 436.458 306.888 436.086C307.464 435.702 307.998 435.318 308.49 434.934C308.994 434.55 309.408 434.16 309.732 433.764C310.068 433.368 310.236 432.942 310.236 432.486C310.236 431.79 310.002 431.244 309.534 430.848C309.078 430.452 308.436 430.254 307.608 430.254C306.78 430.254 306.114 430.434 305.61 430.794C305.118 431.142 304.824 431.652 304.728 432.324H303.378C303.474 431.316 303.912 430.5 304.692 429.876C305.472 429.252 306.414 428.94 307.518 428.94C308.778 428.94 309.78 429.276 310.524 429.948C311.232 430.596 311.586 431.448 311.586 432.504ZM321.698 436.752V437.958H320.096V441H318.746V437.958H313.058V436.644L318.062 429.084H320.096V436.752H321.698ZM318.746 436.752V430.236L314.318 436.752H318.746Z" fill="white"/>
<path d="M219.202 429.084V430.614L214.234 441H212.668L217.816 430.38H210.94V429.084H219.202ZM229.188 436.752V437.958H227.586V441H226.236V437.958H220.548V436.644L225.552 429.084H227.586V436.752H229.188ZM226.236 436.752V430.236L221.808 436.752H226.236ZM239.047 439.92C239.623 439.92 240.133 439.758 240.577 439.434C241.021 439.11 241.345 438.69 241.549 438.174H243.007C242.731 439.062 242.227 439.776 241.495 440.316C240.727 440.868 239.815 441.144 238.759 441.144C237.439 441.144 236.365 440.694 235.537 439.794C234.733 438.918 234.331 437.82 234.331 436.5C234.331 435.18 234.733 434.082 235.537 433.206C236.365 432.306 237.439 431.856 238.759 431.856C239.815 431.856 240.727 432.132 241.495 432.684C242.227 433.224 242.731 433.938 243.007 434.826H241.549C241.345 434.31 241.021 433.89 240.577 433.566C240.133 433.242 239.623 433.08 239.047 433.08C238.471 433.08 237.979 433.17 237.571 433.35C237.175 433.53 236.839 433.776 236.563 434.088C235.975 434.736 235.681 435.54 235.681 436.5C235.681 437.46 235.975 438.264 236.563 438.912C237.163 439.584 237.991 439.92 239.047 439.92ZM251.7 439.56C250.98 440.616 249.906 441.144 248.478 441.144C247.182 441.144 246.126 440.694 245.31 439.794C244.518 438.906 244.122 437.808 244.122 436.5C244.122 435.192 244.518 434.094 245.31 433.206C246.126 432.306 247.212 431.856 248.568 431.856C249.924 431.856 250.968 432.39 251.7 433.458V432H253.05V441H251.7V439.56ZM248.658 439.92C249.63 439.92 250.398 439.584 250.962 438.912C251.502 438.276 251.772 437.472 251.772 436.5C251.772 435.528 251.502 434.724 250.962 434.088C250.398 433.416 249.63 433.08 248.658 433.08C247.698 433.08 246.918 433.416 246.318 434.088C245.754 434.724 245.472 435.528 245.472 436.5C245.472 437.472 245.754 438.276 246.318 438.912C246.918 439.584 247.698 439.92 248.658 439.92ZM256.735 441H255.385V428.4H256.735V441Z" fill="white"/>
<path d="M45.918 480.38H41.76V491H40.41V480.38H36.252V479.084H45.918V480.38ZM50.8693 481.856V483.206H50.7073C49.7353 483.206 48.9433 483.596 48.3313 484.376C47.7553 485.12 47.4673 486.008 47.4673 487.04V491H46.1173V482H47.4673V484.214C47.7553 483.278 48.3793 482.588 49.3393 482.144C49.7353 481.952 50.2153 481.856 50.7793 481.856H50.8693ZM52.3223 482H53.6723V491H52.3223V482ZM53.7263 478.724V480.488H52.2683V478.724H53.7263ZM60.1718 489.92C60.7478 489.92 61.2578 489.758 61.7018 489.434C62.1458 489.11 62.4698 488.69 62.6738 488.174H64.1318C63.8558 489.062 63.3518 489.776 62.6198 490.316C61.8518 490.868 60.9398 491.144 59.8838 491.144C58.5638 491.144 57.4898 490.694 56.6618 489.794C55.8578 488.918 55.4558 487.82 55.4558 486.5C55.4558 485.18 55.8578 484.082 56.6618 483.206C57.4898 482.306 58.5638 481.856 59.8838 481.856C60.9398 481.856 61.8518 482.132 62.6198 482.684C63.3518 483.224 63.8558 483.938 64.1318 484.826H62.6738C62.4698 484.31 62.1458 483.89 61.7018 483.566C61.2578 483.242 60.7478 483.08 60.1718 483.08C59.5958 483.08 59.1038 483.17 58.6958 483.35C58.2998 483.53 57.9638 483.776 57.6878 484.088C57.0998 484.736 56.8058 485.54 56.8058 486.5C56.8058 487.46 57.0998 488.264 57.6878 488.912C58.2878 489.584 59.1158 489.92 60.1718 489.92ZM69.8188 489.92C71.0308 489.92 71.9008 489.416 72.4288 488.408H73.9048C73.5928 489.224 73.0948 489.884 72.4108 490.388C71.7388 490.892 70.8688 491.144 69.8008 491.144C68.4448 491.144 67.3408 490.694 66.4888 489.794C65.6608 488.918 65.2468 487.82 65.2468 486.5C65.2468 485.168 65.6428 484.07 66.4348 483.206C67.2748 482.306 68.3668 481.856 69.7108 481.856C71.0548 481.856 72.1468 482.306 72.9868 483.206C73.7788 484.07 74.1748 485.168 74.1748 486.5V487.04H66.6328C66.7288 487.868 67.0588 488.552 67.6228 489.092C68.1988 489.644 68.9308 489.92 69.8188 489.92ZM69.7108 483.08C68.8828 483.08 68.1868 483.338 67.6228 483.854C67.0948 484.346 66.7708 484.988 66.6508 485.78H72.7708C72.6508 484.988 72.3268 484.346 71.7988 483.854C71.2348 483.338 70.5388 483.08 69.7108 483.08ZM77.1743 483.44C77.8943 482.384 78.9683 481.856 80.3963 481.856C81.6923 481.856 82.7423 482.306 83.5463 483.206C84.3503 484.094 84.7523 485.192 84.7523 486.5C84.7523 487.808 84.3503 488.906 83.5463 489.794C82.7423 490.694 81.6623 491.144 80.3063 491.144C78.9503 491.144 77.9063 490.61 77.1743 489.542V494.564H75.8243V482H77.1743V483.44ZM80.2163 483.08C79.2443 483.08 78.4763 483.416 77.9123 484.088C77.3723 484.724 77.1023 485.528 77.1023 486.5C77.1023 487.472 77.3723 488.276 77.9123 488.912C78.4763 489.584 79.2443 489.92 80.2163 489.92C81.1763 489.92 81.9563 489.584 82.5563 488.912C83.1203 488.276 83.4023 487.472 83.4023 486.5C83.4023 485.528 83.1203 484.724 82.5563 484.088C81.9563 483.416 81.1763 483.08 80.2163 483.08ZM91.9818 480.38V484.376H98.6058V485.69H91.9818V489.704H99.3978V491H90.6318V479.084H99.3978V480.38H91.9818ZM105.237 486.356L108.729 491H107.001L104.463 487.328L101.907 491H100.197L103.671 486.356L100.413 482H102.141L104.463 485.402L106.767 482H108.495L105.237 486.356ZM110.951 491V483.188H109.115V482H110.951V478.778H112.301V482H114.371V483.188H112.301V491H110.951ZM119.688 489.92C120.9 489.92 121.77 489.416 122.298 488.408H123.774C123.462 489.224 122.964 489.884 122.28 490.388C121.608 490.892 120.738 491.144 119.67 491.144C118.314 491.144 117.21 490.694 116.358 489.794C115.53 488.918 115.116 487.82 115.116 486.5C115.116 485.168 115.512 484.07 116.304 483.206C117.144 482.306 118.236 481.856 119.58 481.856C120.924 481.856 122.016 482.306 122.856 483.206C123.648 484.07 124.044 485.168 124.044 486.5V487.04H116.502C116.598 487.868 116.928 488.552 117.492 489.092C118.068 489.644 118.8 489.92 119.688 489.92ZM119.58 483.08C118.752 483.08 118.056 483.338 117.492 483.854C116.964 484.346 116.64 484.988 116.52 485.78H122.64C122.52 484.988 122.196 484.346 121.668 483.854C121.104 483.338 120.408 483.08 119.58 483.08ZM127.043 482V483.404C127.367 482.972 127.763 482.606 128.231 482.306C128.699 482.006 129.233 481.856 129.833 481.856C130.433 481.856 130.949 481.94 131.381 482.108C131.813 482.276 132.191 482.528 132.515 482.864C133.259 483.596 133.631 484.562 133.631 485.762V491H132.281V485.798C132.281 484.97 132.047 484.31 131.579 483.818C131.111 483.326 130.505 483.08 129.761 483.08C129.005 483.08 128.363 483.332 127.835 483.836C127.307 484.352 127.043 485.012 127.043 485.816V491H125.693V482H127.043ZM136.65 491V483.188H134.814V482H136.65V478.778H138V482H140.07V483.188H138V491H136.65ZM141.549 482H142.899V491H141.549V482ZM142.953 478.724V480.488H141.495V478.724H142.953ZM149.146 481.856C150.49 481.856 151.582 482.306 152.422 483.206C153.214 484.07 153.61 485.168 153.61 486.5C153.61 487.832 153.214 488.93 152.422 489.794C151.582 490.694 150.49 491.144 149.146 491.144C147.802 491.144 146.71 490.694 145.87 489.794C145.078 488.93 144.682 487.832 144.682 486.5C144.682 485.168 145.078 484.07 145.87 483.206C146.71 482.306 147.802 481.856 149.146 481.856ZM149.146 489.92C150.118 489.92 150.886 489.584 151.45 488.912C151.99 488.276 152.26 487.472 152.26 486.5C152.26 485.528 151.99 484.724 151.45 484.088C150.886 483.416 150.118 483.08 149.146 483.08C148.174 483.08 147.406 483.416 146.842 484.088C146.302 484.724 146.032 485.528 146.032 486.5C146.032 487.472 146.302 488.276 146.842 488.912C147.406 489.584 148.174 489.92 149.146 489.92ZM156.75 482V483.404C157.074 482.972 157.47 482.606 157.938 482.306C158.406 482.006 158.94 481.856 159.54 481.856C160.14 481.856 160.656 481.94 161.088 482.108C161.52 482.276 161.898 482.528 162.222 482.864C162.966 483.596 163.338 484.562 163.338 485.762V491H161.988V485.798C161.988 484.97 161.754 484.31 161.286 483.818C160.818 483.326 160.212 483.08 159.468 483.08C158.712 483.08 158.07 483.332 157.542 483.836C157.014 484.352 156.75 485.012 156.75 485.816V491H155.4V482H156.75ZM170.888 484.412C170.768 483.476 170.012 483.008 168.62 483.008C167.24 483.008 166.55 483.44 166.55 484.304C166.55 484.664 166.694 484.94 166.982 485.132C167.282 485.312 167.654 485.462 168.098 485.582C168.542 485.702 169.022 485.816 169.538 485.924C170.066 486.02 170.552 486.164 170.996 486.356C171.44 486.536 171.806 486.788 172.094 487.112C172.394 487.436 172.544 487.88 172.544 488.444C172.544 489.32 172.214 489.992 171.554 490.46C170.894 490.916 170 491.144 168.872 491.144C167.672 491.144 166.718 490.844 166.01 490.244C165.362 489.716 165.014 489.026 164.966 488.174H166.37C166.454 489.002 166.922 489.56 167.774 489.848C168.086 489.944 168.392 489.992 168.692 489.992C169.004 489.992 169.292 489.974 169.556 489.938C169.82 489.902 170.078 489.836 170.33 489.74C170.906 489.512 171.194 489.122 171.194 488.57C171.194 488.198 171.044 487.916 170.744 487.724C170.456 487.52 170.09 487.358 169.646 487.238C169.202 487.106 168.716 486.992 168.188 486.896C167.672 486.788 167.192 486.644 166.748 486.464C166.304 486.284 165.932 486.038 165.632 485.726C165.344 485.414 165.2 484.982 165.2 484.43C165.2 483.614 165.494 482.984 166.082 482.54C166.682 482.084 167.564 481.856 168.728 481.856C169.832 481.856 170.702 482.12 171.338 482.648C171.866 483.092 172.172 483.68 172.256 484.412H170.888Z" fill="white"/>
<path d="M311.802 486.752V487.958H310.2V491H308.85V487.958H303.162V486.644L308.166 479.084H310.2V486.752H311.802ZM308.85 486.752V480.236L304.422 486.752H308.85ZM313.274 485.042C313.274 480.974 314.666 478.94 317.45 478.94C318.962 478.964 320.072 479.6 320.78 480.848C321.344 481.856 321.626 483.254 321.626 485.042C321.626 489.11 320.234 491.144 317.45 491.144C314.666 491.144 313.274 489.11 313.274 485.042ZM317.45 489.83C319.034 489.794 319.94 488.756 320.168 486.716C320.24 486.152 320.276 485.594 320.276 485.042C320.276 483.434 320.054 482.234 319.61 481.442C319.166 480.65 318.446 480.254 317.45 480.254C316.454 480.254 315.734 480.65 315.29 481.442C314.846 482.234 314.624 483.434 314.624 485.042C314.624 486.65 314.846 487.85 315.29 488.642C315.734 489.434 316.454 489.83 317.45 489.83Z" fill="white"/>
<path d="M219.076 482.504C219.076 483.02 218.92 483.518 218.608 483.998C218.308 484.478 217.924 484.928 217.456 485.348C216.988 485.768 216.478 486.164 215.926 486.536C215.386 486.908 214.876 487.274 214.396 487.634C213.916 487.982 213.508 488.33 213.172 488.678C212.848 489.014 212.668 489.356 212.632 489.704H219.04V491H211.03V490.262C211.03 489.674 211.192 489.14 211.516 488.66C211.852 488.168 212.266 487.712 212.758 487.292C213.262 486.86 213.802 486.458 214.378 486.086C214.954 485.702 215.488 485.318 215.98 484.934C216.484 484.55 216.898 484.16 217.222 483.764C217.558 483.368 217.726 482.942 217.726 482.486C217.726 481.79 217.492 481.244 217.024 480.848C216.568 480.452 215.926 480.254 215.098 480.254C214.27 480.254 213.604 480.434 213.1 480.794C212.608 481.142 212.314 481.652 212.218 482.324H210.868C210.964 481.316 211.402 480.5 212.182 479.876C212.962 479.252 213.904 478.94 215.008 478.94C216.268 478.94 217.27 479.276 218.014 479.948C218.722 480.596 219.076 481.448 219.076 482.504ZM222.906 483.836C223.518 483.464 224.172 483.278 224.868 483.278C225.564 483.278 226.158 483.374 226.65 483.566C227.142 483.758 227.562 484.028 227.91 484.376C228.654 485.096 229.026 486.032 229.026 487.184C229.026 488.288 228.642 489.224 227.874 489.992C227.106 490.76 226.158 491.144 225.03 491.144C223.662 491.144 222.594 490.772 221.826 490.028C221.262 489.488 220.902 488.816 220.746 488.012H222.132C222.408 488.828 222.972 489.38 223.824 489.668C224.148 489.776 224.52 489.83 224.94 489.83C225.372 489.83 225.75 489.764 226.074 489.632C226.41 489.488 226.698 489.296 226.938 489.056C227.43 488.54 227.676 487.916 227.676 487.184C227.676 486.404 227.43 485.768 226.938 485.276C226.446 484.784 225.804 484.538 225.012 484.538C224.472 484.538 223.992 484.64 223.572 484.844C223.164 485.036 222.858 485.252 222.654 485.492L221.412 484.736L222.222 479.084H228.432V480.38H223.446L222.906 483.836ZM239.047 489.92C239.623 489.92 240.133 489.758 240.577 489.434C241.021 489.11 241.345 488.69 241.549 488.174H243.007C242.731 489.062 242.227 489.776 241.495 490.316C240.727 490.868 239.815 491.144 238.759 491.144C237.439 491.144 236.365 490.694 235.537 489.794C234.733 488.918 234.331 487.82 234.331 486.5C234.331 485.18 234.733 484.082 235.537 483.206C236.365 482.306 237.439 481.856 238.759 481.856C239.815 481.856 240.727 482.132 241.495 482.684C242.227 483.224 242.731 483.938 243.007 484.826H241.549C241.345 484.31 241.021 483.89 240.577 483.566C240.133 483.242 239.623 483.08 239.047 483.08C238.471 483.08 237.979 483.17 237.571 483.35C237.175 483.53 236.839 483.776 236.563 484.088C235.975 484.736 235.681 485.54 235.681 486.5C235.681 487.46 235.975 488.264 236.563 488.912C237.163 489.584 237.991 489.92 239.047 489.92ZM251.7 489.56C250.98 490.616 249.906 491.144 248.478 491.144C247.182 491.144 246.126 490.694 245.31 489.794C244.518 488.906 244.122 487.808 244.122 486.5C244.122 485.192 244.518 484.094 245.31 483.206C246.126 482.306 247.212 481.856 248.568 481.856C249.924 481.856 250.968 482.39 251.7 483.458V482H253.05V491H251.7V489.56ZM248.658 489.92C249.63 489.92 250.398 489.584 250.962 488.912C251.502 488.276 251.772 487.472 251.772 486.5C251.772 485.528 251.502 484.724 250.962 484.088C250.398 483.416 249.63 483.08 248.658 483.08C247.698 483.08 246.918 483.416 246.318 484.088C245.754 484.724 245.472 485.528 245.472 486.5C245.472 487.472 245.754 488.276 246.318 488.912C246.918 489.584 247.698 489.92 248.658 489.92ZM256.735 491H255.385V478.4H256.735V491Z" fill="white"/>
<rect y="718" width="375" height="94" fill="#3E3E3E"/>
<g filter="url(#filter0_d)">
<line x1="123.5" y1="792.5" x2="250.5" y2="792.5" stroke="white" stroke-opacity="0.85" stroke-width="5" stroke-linecap="round" stroke-linejoin="round"/>
</g>
<path d="M201 754H189V766H185V754H173V750H185V738H189V750H201V754Z" fill="white"/>
<defs>
<filter id="filter0_d" x="117" y="790" width="140" height="13" filterUnits="userSpaceOnUse" color-interpolation-filters="sRGB">
<feFlood flood-opacity="0" result="BackgroundImageFix"/>
<feColorMatrix in="SourceAlpha" type="matrix" values="0 0 0 0 0 0 0 0 0 0 0 0 0 0 0 0 0 0 127 0"/>
<feOffset dy="4"/>
<feGaussianBlur stdDeviation="2"/>
<feColorMatrix type="matrix" values="0 0 0 0 0 0 0 0 0 0 0 0 0 0 0 0 0 0 0.25 0"/>
<feBlend mode="normal" in2="BackgroundImageFix" result="effect1_dropShadow"/>
<feBlend mode="normal" in="SourceGraphic" in2="effect1_dropShadow" result="shape"/>
</filter>
</defs>
</svg>
